<svg width="1283" height="293" viewBox="0 0 1283 293" fill="none" xmlns="http://www.w3.org/2000/svg">
  <text x="47" y="240" font-family="Verdana" font-size="18px" font-weight="700" fill="#00CBD9">Vesting One</text>

<path d="M48.5591 266.66C45.0551 266.66 42.7031 264.468 42.7031 260.676C42.7031 256.9 45.0551 254.708 48.5591 254.708C51.5511 254.708 53.6791 256.372 53.9991 258.868H51.4711C51.1831 257.668 50.0951 256.836 48.5591 256.836C46.5591 256.836 45.2791 258.116 45.2791 260.676C45.2791 263.268 46.5591 264.532 48.5591 264.532C50.0471 264.532 51.2151 263.716 51.4711 262.484H53.9991C53.7111 264.996 51.5031 266.66 48.5591 266.66ZM55.5573 266.516V254.852H57.9093V266.516H55.5573ZM62.8443 266.66C60.7963 266.66 59.4203 265.172 59.4203 262.228C59.4203 259.268 60.7963 257.78 62.8443 257.78C64.1723 257.78 65.1643 258.436 65.5643 259.428H65.6923L65.7883 257.94H68.0443V266.516H65.6923V265.012H65.5643C65.1643 266.004 64.1723 266.66 62.8443 266.66ZM63.7403 264.756C65.0523 264.756 65.6603 263.732 65.6603 262.628V261.812C65.6603 260.708 65.0523 259.684 63.7403 259.684C62.5883 259.684 61.8203 260.484 61.8203 262.228C61.8203 263.956 62.5883 264.756 63.7403 264.756ZM70.0573 256.836V254.852H72.4093V256.836H70.0573ZM70.0573 266.516V257.94H72.4093V266.516H70.0573ZM74.4323 266.516V257.94H76.7043L76.7843 259.492H76.8803C77.3123 258.356 78.3523 257.78 79.5043 257.78C80.7043 257.78 81.7603 258.292 82.2243 259.7H82.3523C82.7523 258.42 83.8883 257.78 85.1843 257.78C86.8323 257.78 88.1123 258.756 88.1123 261.332V266.516H85.7603V261.844C85.7603 260.404 85.3123 259.7 84.2403 259.7C83.1043 259.7 82.4483 260.66 82.4483 261.748V266.516H80.0963V261.844C80.0963 260.404 79.6323 259.7 78.5763 259.7C77.4243 259.7 76.7843 260.66 76.7843 261.748V266.516H74.4323ZM93.0799 266.516V266.18C93.0799 261.412 98.7119 260.948 98.7119 258.404C98.7119 257.444 98.0559 256.852 97.0799 256.852C96.0399 256.852 95.3519 257.524 95.4479 258.74H93.1119C93.0479 256.372 94.7119 254.836 97.2239 254.836C99.5759 254.836 101.144 256.148 101.144 258.292C101.144 261.684 96.9679 262.516 96.0719 264.452H101.256V266.516H93.0799ZM106.9 266.66C104.372 266.66 102.74 265.188 102.692 263.012H105.076C105.108 263.972 105.828 264.612 106.916 264.612C108.1 264.612 108.82 263.812 108.82 262.692C108.82 261.508 108.084 260.708 106.9 260.708C105.988 260.708 105.396 261.172 105.156 261.812H102.916L103.22 254.98H110.516V257.028H105.3L105.188 259.444L105.284 259.476C105.716 259.044 106.548 258.756 107.412 258.756C109.764 258.756 111.204 260.372 111.204 262.628C111.204 265.044 109.556 266.66 106.9 266.66ZM114.436 266.516L121.844 254.852H123.46L116.036 266.516H114.436ZM115.108 261.076C113.556 261.076 112.66 259.844 112.66 257.972C112.66 256.036 113.652 254.9 115.14 254.9C116.676 254.9 117.572 256.148 117.572 258.004C117.572 259.972 116.564 261.076 115.108 261.076ZM115.108 259.764C115.604 259.764 116.004 259.524 116.004 257.988C116.004 256.468 115.604 256.228 115.108 256.228C114.628 256.228 114.228 256.468 114.228 257.988C114.228 259.508 114.628 259.764 115.108 259.764ZM122.756 266.58C121.22 266.58 120.324 265.316 120.324 263.46C120.324 261.508 121.316 260.388 122.804 260.388C124.34 260.388 125.236 261.636 125.236 263.492C125.236 265.46 124.244 266.58 122.756 266.58ZM122.788 265.252C123.268 265.252 123.668 265.012 123.668 263.476C123.668 261.956 123.268 261.716 122.788 261.716C122.292 261.716 121.892 261.94 121.892 263.476C121.892 265.012 122.292 265.252 122.788 265.252ZM134.162 266.66C131.586 266.66 129.858 265.012 129.858 262.228C129.858 259.572 131.442 257.78 134.162 257.78C136.722 257.78 138.45 259.444 138.45 262.228C138.45 264.884 136.866 266.66 134.162 266.66ZM134.146 264.756C135.298 264.756 136.066 263.94 136.066 262.228C136.066 260.532 135.33 259.7 134.162 259.7C132.994 259.7 132.226 260.516 132.226 262.228C132.226 263.924 132.978 264.756 134.146 264.756ZM139.948 266.516V257.94H142.204L142.3 259.492H142.396C142.86 258.356 143.916 257.78 145.132 257.78C146.844 257.78 148.156 258.756 148.156 261.332V266.516H145.804V261.844C145.804 260.404 145.324 259.7 144.188 259.7C142.972 259.7 142.3 260.66 142.3 261.748V266.516H139.948ZM47.5031 287.66C44.3511 287.66 42.6871 286.124 42.6871 283.852H45.2151C45.2471 285.004 45.9351 285.756 47.5991 285.756C48.8791 285.756 49.7111 285.292 49.7111 284.364C49.7111 283.244 49.1031 283.004 46.9911 282.652C44.3031 282.236 42.9271 281.292 42.9271 279.26C42.9271 277.068 44.6551 275.708 47.4871 275.708C50.2231 275.708 51.9351 277.1 51.9511 279.18H49.4391C49.3911 278.044 48.5111 277.596 47.4071 277.596C46.2391 277.596 45.5191 278.108 45.5191 278.94C45.5191 280.012 46.3191 280.156 48.3351 280.492C50.2871 280.796 52.3031 281.308 52.3031 284.124C52.3031 286.22 50.6871 287.66 47.5031 287.66ZM57.6767 287.66C54.9887 287.66 53.4047 285.916 53.4047 283.292C53.4047 280.524 55.0527 278.78 57.5967 278.78C60.5727 278.78 61.9807 280.908 61.6927 283.756H55.7247C55.7087 285.116 56.4927 285.884 57.6767 285.884C58.5727 285.884 59.2447 285.452 59.4207 284.796H61.6447C61.4207 286.524 59.8367 287.66 57.6767 287.66ZM57.5967 280.556C56.5247 280.556 55.8367 281.212 55.7407 282.252H59.3887C59.3247 281.116 58.5727 280.556 57.5967 280.556ZM63.2292 290.188V278.94H65.5012L65.5812 280.428H65.7092C66.1092 279.436 67.1012 278.78 68.4292 278.78C70.4772 278.78 71.8692 280.268 71.8692 283.228C71.8692 286.172 70.4772 287.676 68.4292 287.676C67.1012 287.676 66.1092 287.004 65.7092 286.028H65.5812V290.188H63.2292ZM67.5492 285.772C68.7012 285.772 69.4532 284.972 69.4532 283.228C69.4532 281.484 68.7012 280.684 67.5492 280.684C66.2212 280.684 65.6132 281.724 65.6132 282.812V283.644C65.6132 284.732 66.2212 285.772 67.5492 285.772ZM76.1862 287.516C74.4422 287.516 73.9942 286.716 73.9942 285.42V280.828H72.4582V278.94H73.9942V276.604L76.3302 276.38V278.94H78.0582V280.828H76.3302V284.972C76.3302 285.484 76.5702 285.612 77.0182 285.612H78.0582V287.516H76.1862ZM83.0517 287.66C80.3637 287.66 78.7797 285.916 78.7797 283.292C78.7797 280.524 80.4277 278.78 82.9717 278.78C85.9477 278.78 87.3557 280.908 87.0677 283.756H81.0997C81.0837 285.116 81.8677 285.884 83.0517 285.884C83.9477 285.884 84.6197 285.452 84.7957 284.796H87.0197C86.7957 286.524 85.2117 287.66 83.0517 287.66ZM82.9717 280.556C81.8997 280.556 81.2117 281.212 81.1157 282.252H84.7637C84.6997 281.116 83.9477 280.556 82.9717 280.556ZM88.6042 287.516V278.94H90.8762L90.9562 280.492H91.0522C91.4842 279.356 92.5242 278.78 93.6762 278.78C94.8762 278.78 95.9322 279.292 96.3962 280.7H96.5242C96.9242 279.42 98.0602 278.78 99.3562 278.78C101.004 278.78 102.284 279.756 102.284 282.332V287.516H99.9322V282.844C99.9322 281.404 99.4842 280.7 98.4122 280.7C97.2762 280.7 96.6202 281.66 96.6202 282.748V287.516H94.2682V282.844C94.2682 281.404 93.8042 280.7 92.7482 280.7C91.5962 280.7 90.9562 281.66 90.9562 282.748V287.516H88.6042ZM109.414 287.676C108.086 287.676 107.094 287.004 106.694 286.028H106.566L106.47 287.516H104.214V275.852H106.566V280.428H106.694C107.094 279.436 108.086 278.78 109.414 278.78C111.462 278.78 112.838 280.268 112.838 283.228C112.838 286.172 111.462 287.676 109.414 287.676ZM108.518 285.772C109.67 285.772 110.438 284.972 110.438 283.228C110.438 281.484 109.67 280.684 108.518 280.684C107.206 280.684 106.582 281.724 106.582 282.812V283.644C106.582 284.732 107.206 285.772 108.518 285.772ZM118.255 287.66C115.567 287.66 113.983 285.916 113.983 283.292C113.983 280.524 115.631 278.78 118.175 278.78C121.151 278.78 122.559 280.908 122.271 283.756H116.303C116.287 285.116 117.071 285.884 118.255 285.884C119.151 285.884 119.823 285.452 119.999 284.796H122.223C121.999 286.524 120.415 287.66 118.255 287.66ZM118.175 280.556C117.103 280.556 116.415 281.212 116.319 282.252H119.967C119.903 281.116 119.151 280.556 118.175 280.556ZM123.807 287.516V278.94H125.935L126.031 280.316H126.111C126.495 279.212 127.391 278.828 128.479 278.828H128.959V281.036H128.431C126.847 281.036 126.191 281.756 126.159 283.036V287.516H123.807ZM135.86 287.516V279.772H132.948V277.98H133.428C134.948 277.98 135.876 277.18 135.988 275.98H138.212V287.516H135.86ZM145.643 287.516L145.627 284.876H140.235V283.116L145.067 275.98H147.995V282.956H149.499L149.483 284.876H147.995V287.516H145.643ZM142.571 282.956H145.643V278.492L142.571 282.956ZM153.967 287.516C152.223 287.516 151.775 286.716 151.775 285.42V280.828H150.239V278.94H151.775V276.604L154.111 276.38V278.94H155.839V280.828H154.111V284.972C154.111 285.484 154.351 285.612 154.799 285.612H155.839V287.516H153.967ZM157.292 287.516V275.852H159.644V280.492H159.74C160.204 279.356 161.26 278.78 162.476 278.78C164.188 278.78 165.5 279.756 165.5 282.332V287.516H163.148V282.844C163.148 281.404 162.668 280.7 161.532 280.7C160.316 280.7 159.644 281.66 159.644 282.748V287.516H157.292ZM170.471 287.516V287.18C170.471 282.412 176.103 281.948 176.103 279.404C176.103 278.444 175.447 277.852 174.471 277.852C173.431 277.852 172.743 278.524 172.839 279.74H170.503C170.439 277.372 172.103 275.836 174.615 275.836C176.967 275.836 178.535 277.148 178.535 279.292C178.535 282.684 174.359 283.516 173.463 285.452H178.647V287.516H170.471ZM184.211 287.628C181.475 287.628 179.843 285.372 179.843 281.708C179.843 277.932 181.603 275.836 184.259 275.836C186.979 275.836 188.595 278.092 188.595 281.74C188.595 285.548 186.835 287.628 184.211 287.628ZM184.227 285.644C185.411 285.644 186.259 284.764 186.259 281.724C186.259 278.684 185.411 277.82 184.227 277.82C183.027 277.82 182.195 278.684 182.195 281.724C182.195 284.764 183.027 285.644 184.227 285.644ZM189.736 287.516V287.18C189.736 282.412 195.368 281.948 195.368 279.404C195.368 278.444 194.712 277.852 193.736 277.852C192.696 277.852 192.008 278.524 192.104 279.74H189.768C189.704 277.372 191.368 275.836 193.88 275.836C196.232 275.836 197.8 277.148 197.8 279.292C197.8 282.684 193.624 283.516 192.728 285.452H197.912V287.516H189.736ZM204.206 287.516L204.19 284.876H198.798V283.116L203.63 275.98H206.558V282.956H208.062L208.046 284.876H206.558V287.516H204.206ZM201.134 282.956H204.206V278.492L201.134 282.956Z" fill="#C6CCFF"/>
<path d="M341.335 107.613L336.156 92.8053H339.69L342.574 101.946L343.387 104.606H343.529L344.321 101.946L347.226 92.8053H350.76L345.601 107.613H341.335ZM355.675 107.795C352.263 107.795 350.252 105.581 350.252 102.25C350.252 98.7363 352.344 96.5223 355.574 96.5223C359.352 96.5223 361.139 99.2238 360.774 102.839H353.197C353.177 104.566 354.172 105.541 355.675 105.541C356.813 105.541 357.666 104.992 357.889 104.16H360.713C360.428 106.353 358.417 107.795 355.675 107.795ZM355.574 98.7769C354.213 98.7769 353.34 99.6097 353.218 100.93H357.849C357.768 99.4878 356.813 98.7769 355.574 98.7769ZM367.091 107.816C363.923 107.816 362.135 106.353 362.155 104.18H365.08C365.101 105.338 365.994 105.805 367.172 105.805C368.391 105.805 369.021 105.358 369.021 104.627C369.021 103.631 368.33 103.489 366.787 103.266C364.369 102.941 362.44 102.372 362.44 99.9753C362.44 97.6801 364.349 96.5223 367.193 96.5223C369.976 96.5223 371.743 97.802 371.804 99.955H368.879C368.879 99.041 368.188 98.5332 367.112 98.5332C365.994 98.5332 365.426 99.0004 365.426 99.6706C365.426 100.483 366.116 100.727 367.721 100.93C369.976 101.235 372.027 101.682 372.027 104.342C372.027 106.739 370.158 107.816 367.091 107.816ZM377.626 107.613C375.412 107.613 374.843 106.597 374.843 104.952V99.1222H372.893V96.7254H374.843V93.7599L377.809 93.4756V96.7254H380.002V99.1222H377.809V104.383C377.809 105.033 378.113 105.195 378.682 105.195H380.002V107.613H377.626ZM381.846 95.3239V92.8053H384.832V95.3239H381.846ZM381.846 107.613V96.7254H384.832V107.613H381.846ZM387.4 107.613V96.7254H390.264L390.386 98.6957H390.508C391.097 97.2535 392.437 96.5223 393.981 96.5223C396.154 96.5223 397.82 97.7613 397.82 101.032V107.613H394.834V101.682C394.834 99.8535 394.225 98.9597 392.782 98.9597C391.239 98.9597 390.386 100.178 390.386 101.56V107.613H387.4ZM404.843 111.208C401.959 111.208 400.233 109.908 400.07 107.897H402.934C403.076 108.628 403.807 109.095 404.904 109.095C406.651 109.095 407.362 108.364 407.362 106.861V104.992H407.2C406.712 106.17 405.473 106.963 403.909 106.963C401.309 106.963 399.623 105.175 399.623 101.742C399.623 98.3098 401.35 96.5223 403.929 96.5223C405.493 96.5223 406.712 97.2942 407.2 98.4723H407.362L407.443 96.7254H410.348V106.313C410.348 109.948 408.134 111.208 404.843 111.208ZM405.006 104.667C406.529 104.667 407.301 103.55 407.362 102.372L407.342 101.072C407.281 99.9347 406.529 98.8176 405.026 98.8176C403.584 98.8176 402.67 99.7722 402.67 101.742C402.67 103.713 403.604 104.667 405.006 104.667ZM420.384 107.613V95.5474H416.017V92.8053H428.001V95.5474H423.532V107.613H420.384ZM429.505 107.613L426.905 96.7254H429.992L431.678 104.627H431.8L433.344 96.7254H436.594L438.137 104.667H438.218L439.925 96.7254H442.89L440.27 107.613H436.37L434.887 100.524H434.786L433.344 107.613H429.505ZM448.944 107.795C445.674 107.795 443.48 105.703 443.48 102.169C443.48 98.7972 445.491 96.5223 448.944 96.5223C452.194 96.5223 454.387 98.6347 454.387 102.169C454.387 105.541 452.377 107.795 448.944 107.795ZM448.924 105.378C450.386 105.378 451.361 104.342 451.361 102.169C451.361 100.016 450.427 98.9597 448.944 98.9597C447.461 98.9597 446.486 99.9956 446.486 102.169C446.486 104.322 447.441 105.378 448.924 105.378Z" fill="#00CBD9"/>
<path d="M342.916 133.144C339.412 133.144 337.06 130.952 337.06 127.16C337.06 123.384 339.412 121.192 342.916 121.192C345.908 121.192 348.036 122.856 348.356 125.352H345.828C345.54 124.152 344.452 123.32 342.916 123.32C340.916 123.32 339.636 124.6 339.636 127.16C339.636 129.752 340.916 131.016 342.916 131.016C344.404 131.016 345.572 130.2 345.828 128.968H348.356C348.068 131.48 345.86 133.144 342.916 133.144ZM349.914 133V121.336H352.266V133H349.914ZM357.201 133.144C355.153 133.144 353.777 131.656 353.777 128.712C353.777 125.752 355.153 124.264 357.201 124.264C358.529 124.264 359.521 124.92 359.921 125.912H360.049L360.145 124.424H362.401V133H360.049V131.496H359.921C359.521 132.488 358.529 133.144 357.201 133.144ZM358.097 131.24C359.409 131.24 360.017 130.216 360.017 129.112V128.296C360.017 127.192 359.409 126.168 358.097 126.168C356.945 126.168 356.177 126.968 356.177 128.712C356.177 130.44 356.945 131.24 358.097 131.24ZM364.414 123.32V121.336H366.766V123.32H364.414ZM364.414 133V124.424H366.766V133H364.414ZM368.789 133V124.424H371.061L371.141 125.976H371.237C371.669 124.84 372.709 124.264 373.861 124.264C375.061 124.264 376.117 124.776 376.581 126.184H376.709C377.109 124.904 378.245 124.264 379.541 124.264C381.189 124.264 382.469 125.24 382.469 127.816V133H380.117V128.328C380.117 126.888 379.669 126.184 378.597 126.184C377.461 126.184 376.805 127.144 376.805 128.232V133H374.453V128.328C374.453 126.888 373.989 126.184 372.933 126.184C371.781 126.184 371.141 127.144 371.141 128.232V133H368.789ZM387.437 133V132.664C387.437 127.896 393.069 127.432 393.069 124.888C393.069 123.928 392.413 123.336 391.437 123.336C390.397 123.336 389.709 124.008 389.805 125.224H387.469C387.405 122.856 389.069 121.32 391.581 121.32C393.933 121.32 395.501 122.632 395.501 124.776C395.501 128.168 391.325 129 390.429 130.936H395.613V133H387.437ZM401.257 133.144C398.729 133.144 397.097 131.672 397.049 129.496H399.433C399.465 130.456 400.185 131.096 401.273 131.096C402.457 131.096 403.177 130.296 403.177 129.176C403.177 127.992 402.441 127.192 401.257 127.192C400.345 127.192 399.753 127.656 399.513 128.296H397.273L397.577 121.464H404.873V123.512H399.657L399.545 125.928L399.641 125.96C400.073 125.528 400.905 125.24 401.769 125.24C404.121 125.24 405.561 126.856 405.561 129.112C405.561 131.528 403.913 133.144 401.257 133.144ZM408.793 133L416.201 121.336H417.817L410.393 133H408.793ZM409.465 127.56C407.913 127.56 407.017 126.328 407.017 124.456C407.017 122.52 408.009 121.384 409.497 121.384C411.033 121.384 411.929 122.632 411.929 124.488C411.929 126.456 410.921 127.56 409.465 127.56ZM409.465 126.248C409.961 126.248 410.361 126.008 410.361 124.472C410.361 122.952 409.961 122.712 409.465 122.712C408.985 122.712 408.585 122.952 408.585 124.472C408.585 125.992 408.985 126.248 409.465 126.248ZM417.113 133.064C415.577 133.064 414.681 131.8 414.681 129.944C414.681 127.992 415.673 126.872 417.161 126.872C418.697 126.872 419.593 128.12 419.593 129.976C419.593 131.944 418.601 133.064 417.113 133.064ZM417.145 131.736C417.625 131.736 418.025 131.496 418.025 129.96C418.025 128.44 417.625 128.2 417.145 128.2C416.649 128.2 416.249 128.424 416.249 129.96C416.249 131.496 416.649 131.736 417.145 131.736ZM428.519 133.144C425.943 133.144 424.215 131.496 424.215 128.712C424.215 126.056 425.799 124.264 428.519 124.264C431.079 124.264 432.807 125.928 432.807 128.712C432.807 131.368 431.223 133.144 428.519 133.144ZM428.503 131.24C429.655 131.24 430.423 130.424 430.423 128.712C430.423 127.016 429.687 126.184 428.519 126.184C427.351 126.184 426.583 127 426.583 128.712C426.583 130.408 427.335 131.24 428.503 131.24ZM434.305 133V124.424H436.561L436.657 125.976H436.753C437.217 124.84 438.273 124.264 439.489 124.264C441.201 124.264 442.513 125.24 442.513 127.816V133H440.161V128.328C440.161 126.888 439.681 126.184 438.545 126.184C437.329 126.184 436.657 127.144 436.657 128.232V133H434.305ZM342.916 154.144C339.396 154.144 337.06 151.952 337.06 148.16C337.06 144.368 339.396 142.192 342.916 142.192C346.452 142.192 348.772 144.384 348.772 148.16C348.772 151.968 346.436 154.144 342.916 154.144ZM342.916 152.016C344.932 152.016 346.212 150.72 346.212 148.16C346.212 145.6 344.916 144.32 342.916 144.32C340.916 144.32 339.636 145.6 339.636 148.16C339.636 150.736 340.916 152.016 342.916 152.016ZM354.174 154.144C351.598 154.144 349.918 152.384 349.918 149.712C349.918 147.024 351.614 145.264 354.254 145.264C356.462 145.264 358.046 146.608 358.142 148.544H355.838C355.694 147.648 355.038 147.184 354.19 147.184C352.942 147.184 352.302 148.176 352.302 149.712C352.302 151.392 353.054 152.224 354.174 152.224C355.166 152.224 355.774 151.664 355.87 150.832H358.158C358.062 152.848 356.43 154.144 354.174 154.144ZM362.434 154C360.69 154 360.242 153.2 360.242 151.904V147.312H358.706V145.424H360.242V143.088L362.578 142.864V145.424H364.306V147.312H362.578V151.456C362.578 151.968 362.818 152.096 363.266 152.096H364.306V154H362.434ZM369.331 154.144C366.755 154.144 365.027 152.496 365.027 149.712C365.027 147.056 366.611 145.264 369.331 145.264C371.891 145.264 373.619 146.928 373.619 149.712C373.619 152.368 372.035 154.144 369.331 154.144ZM369.315 152.24C370.467 152.24 371.235 151.424 371.235 149.712C371.235 148.016 370.499 147.184 369.331 147.184C368.163 147.184 367.395 148 367.395 149.712C367.395 151.408 368.147 152.24 369.315 152.24ZM380.317 154.16C378.989 154.16 377.997 153.488 377.597 152.512H377.469L377.373 154H375.117V142.336H377.469V146.912H377.597C377.997 145.92 378.989 145.264 380.317 145.264C382.365 145.264 383.741 146.752 383.741 149.712C383.741 152.656 382.365 154.16 380.317 154.16ZM379.421 152.256C380.573 152.256 381.341 151.456 381.341 149.712C381.341 147.968 380.573 147.168 379.421 147.168C378.109 147.168 377.485 148.208 377.485 149.296V150.128C377.485 151.216 378.109 152.256 379.421 152.256ZM389.159 154.144C386.471 154.144 384.887 152.4 384.887 149.776C384.887 147.008 386.535 145.264 389.079 145.264C392.055 145.264 393.463 147.392 393.175 150.24H387.207C387.191 151.6 387.975 152.368 389.159 152.368C390.055 152.368 390.727 151.936 390.903 151.28H393.127C392.903 153.008 391.319 154.144 389.159 154.144ZM389.079 147.04C388.007 147.04 387.319 147.696 387.223 148.736H390.871C390.807 147.6 390.055 147.04 389.079 147.04ZM394.711 154V145.424H396.839L396.935 146.8H397.015C397.399 145.696 398.295 145.312 399.383 145.312H399.863V147.52H399.335C397.751 147.52 397.095 148.24 397.063 149.52V154H394.711ZM406.764 154V146.256H403.852V144.464H404.332C405.852 144.464 406.78 143.664 406.892 142.464H409.116V154H406.764ZM416.547 154L416.531 151.36H411.139V149.6L415.971 142.464H418.899V149.44H420.403L420.387 151.36H418.899V154H416.547ZM413.475 149.44H416.547V144.976L413.475 149.44ZM424.871 154C423.127 154 422.679 153.2 422.679 151.904V147.312H421.143V145.424H422.679V143.088L425.015 142.864V145.424H426.743V147.312H425.015V151.456C425.015 151.968 425.255 152.096 425.703 152.096H426.743V154H424.871ZM428.196 154V142.336H430.548V146.976H430.644C431.108 145.84 432.164 145.264 433.38 145.264C435.092 145.264 436.404 146.24 436.404 148.816V154H434.052V149.328C434.052 147.888 433.572 147.184 432.436 147.184C431.22 147.184 430.548 148.144 430.548 149.232V154H428.196ZM441.374 154V153.664C441.374 148.896 447.006 148.432 447.006 145.888C447.006 144.928 446.35 144.336 445.374 144.336C444.334 144.336 443.646 145.008 443.742 146.224H441.406C441.342 143.856 443.006 142.32 445.518 142.32C447.87 142.32 449.438 143.632 449.438 145.776C449.438 149.168 445.262 150 444.366 151.936H449.55V154H441.374ZM455.114 154.112C452.378 154.112 450.746 151.856 450.746 148.192C450.746 144.416 452.506 142.32 455.162 142.32C457.882 142.32 459.498 144.576 459.498 148.224C459.498 152.032 457.738 154.112 455.114 154.112ZM455.13 152.128C456.314 152.128 457.162 151.248 457.162 148.208C457.162 145.168 456.314 144.304 455.13 144.304C453.93 144.304 453.098 145.168 453.098 148.208C453.098 151.248 453.93 152.128 455.13 152.128ZM460.64 154V153.664C460.64 148.896 466.272 148.432 466.272 145.888C466.272 144.928 465.616 144.336 464.64 144.336C463.6 144.336 462.912 145.008 463.008 146.224H460.672C460.608 143.856 462.272 142.32 464.784 142.32C467.136 142.32 468.704 143.632 468.704 145.776C468.704 149.168 464.528 150 463.632 151.936H468.816V154H460.64ZM475.109 154L475.093 151.36H469.701V149.6L474.533 142.464H477.461V149.44H478.965L478.949 151.36H477.461V154H475.109ZM472.037 149.44H475.109V144.976L472.037 149.44Z" fill="#C6CCFF"/>
<path d="M1071.76 38.72L1066.58 23.9127H1070.11L1072.99 33.053L1073.81 35.7138H1073.95L1074.74 33.053L1077.65 23.9127H1081.18L1076.02 38.72H1071.76ZM1086.1 38.9028C1082.68 38.9028 1080.67 36.6888 1080.67 33.3577C1080.67 29.8437 1082.76 27.6297 1085.99 27.6297C1089.77 27.6297 1091.56 30.3312 1091.19 33.9467H1083.62C1083.6 35.6732 1084.59 36.6482 1086.1 36.6482C1087.23 36.6482 1088.09 36.0998 1088.31 35.267H1091.13C1090.85 37.4606 1088.84 38.9028 1086.1 38.9028ZM1085.99 29.8844C1084.63 29.8844 1083.76 30.7171 1083.64 32.0374H1088.27C1088.19 30.5953 1087.23 29.8844 1085.99 29.8844ZM1097.51 38.9231C1094.34 38.9231 1092.56 37.4606 1092.58 35.2873H1095.5C1095.52 36.4451 1096.41 36.9122 1097.59 36.9122C1098.81 36.9122 1099.44 36.4654 1099.44 35.7341C1099.44 34.7389 1098.75 34.5967 1097.21 34.3733C1094.79 34.0483 1092.86 33.4795 1092.86 31.0827C1092.86 28.7875 1094.77 27.6297 1097.61 27.6297C1100.4 27.6297 1102.16 28.9094 1102.22 31.0624H1099.3C1099.3 30.1484 1098.61 29.6406 1097.53 29.6406C1096.41 29.6406 1095.85 30.1078 1095.85 30.7781C1095.85 31.5905 1096.54 31.8343 1098.14 32.0374C1100.4 32.3421 1102.45 32.7889 1102.45 35.4498C1102.45 37.8466 1100.58 38.9231 1097.51 38.9231ZM1108.05 38.72C1105.83 38.72 1105.26 37.7044 1105.26 36.0591V30.2297H1103.31V27.8329H1105.26V24.8673L1108.23 24.583V27.8329H1110.42V30.2297H1108.23V35.4904C1108.23 36.1404 1108.53 36.3029 1109.1 36.3029H1110.42V38.72H1108.05ZM1112.27 26.4314V23.9127H1115.25V26.4314H1112.27ZM1112.27 38.72V27.8329H1115.25V38.72H1112.27ZM1117.82 38.72V27.8329H1120.68L1120.81 29.8031H1120.93C1121.52 28.361 1122.86 27.6297 1124.4 27.6297C1126.57 27.6297 1128.24 28.8688 1128.24 32.139V38.72H1125.25V32.7889C1125.25 30.9609 1124.65 30.0672 1123.2 30.0672C1121.66 30.0672 1120.81 31.2859 1120.81 32.6671V38.72H1117.82ZM1135.26 42.3152C1132.38 42.3152 1130.65 41.0152 1130.49 39.0043H1133.35C1133.5 39.7356 1134.23 40.2027 1135.32 40.2027C1137.07 40.2027 1137.78 39.4715 1137.78 37.9684V36.0998H1137.62C1137.13 37.2778 1135.89 38.07 1134.33 38.07C1131.73 38.07 1130.04 36.2826 1130.04 32.8499C1130.04 29.4172 1131.77 27.6297 1134.35 27.6297C1135.91 27.6297 1137.13 28.4016 1137.62 29.5797H1137.78L1137.86 27.8329H1140.77V37.42C1140.77 41.0558 1138.55 42.3152 1135.26 42.3152ZM1135.43 35.7748C1136.95 35.7748 1137.72 34.6576 1137.78 33.4795L1137.76 32.1796C1137.7 31.0421 1136.95 29.925 1135.45 29.925C1134 29.925 1133.09 30.8796 1133.09 32.8499C1133.09 34.8201 1134.02 35.7748 1135.43 35.7748ZM1147.86 38.72V23.9127H1158.6V26.6142H1151.03V30.3312H1157.79V32.9108H1151.03V38.72H1147.86ZM1165.06 38.9028C1161.79 38.9028 1159.6 36.8107 1159.6 33.2764C1159.6 29.9047 1161.61 27.6297 1165.06 27.6297C1168.31 27.6297 1170.51 29.7422 1170.51 33.2764C1170.51 36.6482 1168.5 38.9028 1165.06 38.9028ZM1165.04 36.4857C1166.5 36.4857 1167.48 35.4498 1167.48 33.2764C1167.48 31.1234 1166.55 30.0672 1165.06 30.0672C1163.58 30.0672 1162.61 31.1031 1162.61 33.2764C1162.61 35.4295 1163.56 36.4857 1165.04 36.4857ZM1176.19 38.9028C1173.67 38.9028 1172.31 37.3997 1172.31 34.617V27.8329H1175.29V33.8248C1175.29 35.5513 1175.88 36.4857 1177.36 36.4857C1178.87 36.4857 1179.74 35.2873 1179.74 33.8451V27.8329H1182.73V38.72H1179.86L1179.74 36.7294H1179.6C1179.07 38.1512 1177.75 38.9028 1176.19 38.9028ZM1185.18 38.72V27.8329H1187.88L1188.01 29.5797H1188.11C1188.59 28.1782 1189.73 27.6907 1191.11 27.6907H1191.72V30.4937H1191.05C1189.04 30.4937 1188.21 31.4077 1188.17 33.0327V38.72H1185.18Z" fill="#00CBD9"/>
<path d="M1072.91 64.5261C1069.41 64.5261 1067.06 62.3341 1067.06 58.5421C1067.06 54.7661 1069.41 52.5741 1072.91 52.5741C1075.9 52.5741 1078.03 54.2381 1078.35 56.7341H1075.82C1075.54 55.5341 1074.45 54.7021 1072.91 54.7021C1070.91 54.7021 1069.63 55.9821 1069.63 58.5421C1069.63 61.1341 1070.91 62.3981 1072.91 62.3981C1074.4 62.3981 1075.57 61.5821 1075.82 60.3501H1078.35C1078.06 62.8621 1075.86 64.5261 1072.91 64.5261ZM1079.91 64.3821V52.7181H1082.26V64.3821H1079.91ZM1087.2 64.5261C1085.15 64.5261 1083.77 63.0381 1083.77 60.0941C1083.77 57.1341 1085.15 55.6461 1087.2 55.6461C1088.52 55.6461 1089.52 56.3021 1089.92 57.2941H1090.04L1090.14 55.8061H1092.4V64.3821H1090.04V62.8781H1089.92C1089.52 63.8701 1088.52 64.5261 1087.2 64.5261ZM1088.09 62.6221C1089.4 62.6221 1090.01 61.5981 1090.01 60.4941V59.6781C1090.01 58.5741 1089.4 57.5501 1088.09 57.5501C1086.94 57.5501 1086.17 58.3501 1086.17 60.0941C1086.17 61.8221 1086.94 62.6221 1088.09 62.6221ZM1094.41 54.7021V52.7181H1096.76V54.7021H1094.41ZM1094.41 64.3821V55.8061H1096.76V64.3821H1094.41ZM1098.78 64.3821V55.8061H1101.06L1101.14 57.3581H1101.23C1101.66 56.2221 1102.7 55.6461 1103.86 55.6461C1105.06 55.6461 1106.11 56.1581 1106.58 57.5661H1106.7C1107.1 56.2861 1108.24 55.6461 1109.54 55.6461C1111.18 55.6461 1112.46 56.6221 1112.46 59.1981V64.3821H1110.11V59.7101C1110.11 58.2701 1109.66 57.5661 1108.59 57.5661C1107.46 57.5661 1106.8 58.5261 1106.8 59.6141V64.3821H1104.45V59.7101C1104.45 58.2701 1103.98 57.5661 1102.93 57.5661C1101.78 57.5661 1101.14 58.5261 1101.14 59.6141V64.3821H1098.78ZM1117.43 64.3821V64.0461C1117.43 59.2781 1123.06 58.8141 1123.06 56.2701C1123.06 55.3101 1122.41 54.7181 1121.43 54.7181C1120.39 54.7181 1119.7 55.3901 1119.8 56.6061H1117.46C1117.4 54.2381 1119.06 52.7021 1121.58 52.7021C1123.93 52.7021 1125.5 54.0141 1125.5 56.1581C1125.5 59.5501 1121.32 60.3821 1120.42 62.3181H1125.61V64.3821H1117.43ZM1131.25 64.5261C1128.72 64.5261 1127.09 63.0541 1127.04 60.8781H1129.43C1129.46 61.8381 1130.18 62.4781 1131.27 62.4781C1132.45 62.4781 1133.17 61.6781 1133.17 60.5581C1133.17 59.3741 1132.44 58.5741 1131.25 58.5741C1130.34 58.5741 1129.75 59.0381 1129.51 59.6781H1127.27L1127.57 52.8461H1134.87V54.8941H1129.65L1129.54 57.3101L1129.64 57.3421C1130.07 56.9101 1130.9 56.6221 1131.76 56.6221C1134.12 56.6221 1135.56 58.2381 1135.56 60.4941C1135.56 62.9101 1133.91 64.5261 1131.25 64.5261ZM1138.79 64.3821L1146.2 52.7181H1147.81L1140.39 64.3821H1138.79ZM1139.46 58.9421C1137.91 58.9421 1137.01 57.7101 1137.01 55.8381C1137.01 53.9021 1138 52.7661 1139.49 52.7661C1141.03 52.7661 1141.92 54.0141 1141.92 55.8701C1141.92 57.8381 1140.92 58.9421 1139.46 58.9421ZM1139.46 57.6301C1139.96 57.6301 1140.36 57.3901 1140.36 55.8541C1140.36 54.3341 1139.96 54.0941 1139.46 54.0941C1138.98 54.0941 1138.58 54.3341 1138.58 55.8541C1138.58 57.3741 1138.98 57.6301 1139.46 57.6301ZM1147.11 64.4461C1145.57 64.4461 1144.68 63.1821 1144.68 61.3261C1144.68 59.3741 1145.67 58.2541 1147.16 58.2541C1148.69 58.2541 1149.59 59.5021 1149.59 61.3581C1149.59 63.3261 1148.6 64.4461 1147.11 64.4461ZM1147.14 63.1181C1147.62 63.1181 1148.02 62.8781 1148.02 61.3421C1148.02 59.8221 1147.62 59.5821 1147.14 59.5821C1146.64 59.5821 1146.24 59.8061 1146.24 61.3421C1146.24 62.8781 1146.64 63.1181 1147.14 63.1181ZM1158.51 64.5261C1155.94 64.5261 1154.21 62.8781 1154.21 60.0941C1154.21 57.4381 1155.79 55.6461 1158.51 55.6461C1161.07 55.6461 1162.8 57.3101 1162.8 60.0941C1162.8 62.7501 1161.22 64.5261 1158.51 64.5261ZM1158.5 62.6221C1159.65 62.6221 1160.42 61.8061 1160.42 60.0941C1160.42 58.3981 1159.68 57.5661 1158.51 57.5661C1157.35 57.5661 1156.58 58.3821 1156.58 60.0941C1156.58 61.7901 1157.33 62.6221 1158.5 62.6221ZM1164.3 64.3821V55.8061H1166.56L1166.65 57.3581H1166.75C1167.21 56.2221 1168.27 55.6461 1169.48 55.6461C1171.2 55.6461 1172.51 56.6221 1172.51 59.1981V64.3821H1170.16V59.7101C1170.16 58.2701 1169.68 57.5661 1168.54 57.5661C1167.32 57.5661 1166.65 58.5261 1166.65 59.6141V64.3821H1164.3ZM1067.76 85.3821V73.7181H1072.72C1076.21 73.7181 1078.1 76.0701 1078.1 79.5581C1078.1 83.0461 1076.19 85.3821 1072.72 85.3821H1067.76ZM1070.26 83.2541H1072.32C1074.19 83.2541 1075.55 82.3261 1075.55 79.5101C1075.55 76.7581 1074.22 75.8301 1072.32 75.8301H1070.26V83.2541ZM1083.51 85.5261C1080.83 85.5261 1079.24 83.7821 1079.24 81.1581C1079.24 78.3901 1080.89 76.6461 1083.43 76.6461C1086.41 76.6461 1087.82 78.7741 1087.53 81.6221H1081.56C1081.55 82.9821 1082.33 83.7501 1083.51 83.7501C1084.41 83.7501 1085.08 83.3181 1085.26 82.6621H1087.48C1087.26 84.3901 1085.67 85.5261 1083.51 85.5261ZM1083.43 78.4221C1082.36 78.4221 1081.67 79.0781 1081.58 80.1181H1085.23C1085.16 78.9821 1084.41 78.4221 1083.43 78.4221ZM1092.97 85.5261C1090.39 85.5261 1088.71 83.7661 1088.71 81.0941C1088.71 78.4061 1090.41 76.6461 1093.05 76.6461C1095.25 76.6461 1096.84 77.9901 1096.93 79.9261H1094.63C1094.49 79.0301 1093.83 78.5661 1092.98 78.5661C1091.73 78.5661 1091.09 79.5581 1091.09 81.0941C1091.09 82.7741 1091.85 83.6061 1092.97 83.6061C1093.96 83.6061 1094.57 83.0461 1094.66 82.2141H1096.95C1096.85 84.2301 1095.22 85.5261 1092.97 85.5261ZM1102.15 85.5261C1099.47 85.5261 1097.88 83.7821 1097.88 81.1581C1097.88 78.3901 1099.53 76.6461 1102.07 76.6461C1105.05 76.6461 1106.46 78.7741 1106.17 81.6221H1100.2C1100.19 82.9821 1100.97 83.7501 1102.15 83.7501C1103.05 83.7501 1103.72 83.3181 1103.9 82.6621H1106.12C1105.9 84.3901 1104.31 85.5261 1102.15 85.5261ZM1102.07 78.4221C1101 78.4221 1100.31 79.0781 1100.22 80.1181H1103.87C1103.8 78.9821 1103.05 78.4221 1102.07 78.4221ZM1107.71 85.3821V76.8061H1109.98L1110.06 78.3581H1110.15C1110.59 77.2221 1111.63 76.6461 1112.78 76.6461C1113.98 76.6461 1115.03 77.1581 1115.5 78.5661H1115.63C1116.03 77.2861 1117.16 76.6461 1118.46 76.6461C1120.11 76.6461 1121.39 77.6221 1121.39 80.1981V85.3821H1119.03V80.7101C1119.03 79.2701 1118.59 78.5661 1117.51 78.5661C1116.38 78.5661 1115.72 79.5261 1115.72 80.6141V85.3821H1113.37V80.7101C1113.37 79.2701 1112.91 78.5661 1111.85 78.5661C1110.7 78.5661 1110.06 79.5261 1110.06 80.6141V85.3821H1107.71ZM1128.52 85.5421C1127.19 85.5421 1126.2 84.8701 1125.8 83.8941H1125.67L1125.57 85.3821H1123.32V73.7181H1125.67V78.2941H1125.8C1126.2 77.3021 1127.19 76.6461 1128.52 76.6461C1130.56 76.6461 1131.94 78.1341 1131.94 81.0941C1131.94 84.0381 1130.56 85.5421 1128.52 85.5421ZM1127.62 83.6381C1128.77 83.6381 1129.54 82.8381 1129.54 81.0941C1129.54 79.3501 1128.77 78.5501 1127.62 78.5501C1126.31 78.5501 1125.68 79.5901 1125.68 80.6781V81.5101C1125.68 82.5981 1126.31 83.6381 1127.62 83.6381ZM1137.36 85.5261C1134.67 85.5261 1133.08 83.7821 1133.08 81.1581C1133.08 78.3901 1134.73 76.6461 1137.28 76.6461C1140.25 76.6461 1141.66 78.7741 1141.37 81.6221H1135.4C1135.39 82.9821 1136.17 83.7501 1137.36 83.7501C1138.25 83.7501 1138.92 83.3181 1139.1 82.6621H1141.32C1141.1 84.3901 1139.52 85.5261 1137.36 85.5261ZM1137.28 78.4221C1136.2 78.4221 1135.52 79.0781 1135.42 80.1181H1139.07C1139 78.9821 1138.25 78.4221 1137.28 78.4221ZM1142.91 85.3821V76.8061H1145.04L1145.13 78.1821H1145.21C1145.6 77.0781 1146.49 76.6941 1147.58 76.6941H1148.06V78.9021H1147.53C1145.95 78.9021 1145.29 79.6221 1145.26 80.9021V85.3821H1142.91ZM1154.96 85.3821V77.6381H1152.05V75.8461H1152.53C1154.05 75.8461 1154.98 75.0461 1155.09 73.8461H1157.31V85.3821H1154.96ZM1164.75 85.3821L1164.73 82.7421H1159.34V80.9821L1164.17 73.8461H1167.1V80.8221H1168.6L1168.59 82.7421H1167.1V85.3821H1164.75ZM1161.67 80.8221H1164.75V76.3581L1161.67 80.8221ZM1173.07 85.3821C1171.33 85.3821 1170.88 84.5821 1170.88 83.2861V78.6941H1169.34V76.8061H1170.88V74.4701L1173.21 74.2461V76.8061H1174.94V78.6941H1173.21V82.8381C1173.21 83.3501 1173.45 83.4781 1173.9 83.4781H1174.94V85.3821H1173.07ZM1176.39 85.3821V73.7181H1178.75V78.3581H1178.84C1179.31 77.2221 1180.36 76.6461 1181.58 76.6461C1183.29 76.6461 1184.6 77.6221 1184.6 80.1981V85.3821H1182.25V80.7101C1182.25 79.2701 1181.77 78.5661 1180.63 78.5661C1179.42 78.5661 1178.75 79.5261 1178.75 80.6141V85.3821H1176.39ZM1189.57 85.3821V85.0461C1189.57 80.2781 1195.2 79.8141 1195.2 77.2701C1195.2 76.3101 1194.55 75.7181 1193.57 75.7181C1192.53 75.7181 1191.84 76.3901 1191.94 77.6061H1189.6C1189.54 75.2381 1191.2 73.7021 1193.72 73.7021C1196.07 73.7021 1197.64 75.0141 1197.64 77.1581C1197.64 80.5501 1193.46 81.3821 1192.56 83.3181H1197.75V85.3821H1189.57ZM1203.31 85.4941C1200.58 85.4941 1198.94 83.2381 1198.94 79.5741C1198.94 75.7981 1200.7 73.7021 1203.36 73.7021C1206.08 73.7021 1207.7 75.9581 1207.7 79.6061C1207.7 83.4141 1205.94 85.4941 1203.31 85.4941ZM1203.33 83.5101C1204.51 83.5101 1205.36 82.6301 1205.36 79.5901C1205.36 76.5501 1204.51 75.6861 1203.33 75.6861C1202.13 75.6861 1201.3 76.5501 1201.3 79.5901C1201.3 82.6301 1202.13 83.5101 1203.33 83.5101ZM1208.84 85.3821V85.0461C1208.84 80.2781 1214.47 79.8141 1214.47 77.2701C1214.47 76.3101 1213.81 75.7181 1212.84 75.7181C1211.8 75.7181 1211.11 76.3901 1211.21 77.6061H1208.87C1208.81 75.2381 1210.47 73.7021 1212.98 73.7021C1215.33 73.7021 1216.9 75.0141 1216.9 77.1581C1216.9 80.5501 1212.73 81.3821 1211.83 83.3181H1217.01V85.3821H1208.84ZM1223.31 85.3821L1223.29 82.7421H1217.9V80.9821L1222.73 73.8461H1225.66V80.8221H1227.16L1227.15 82.7421H1225.66V85.3821H1223.31ZM1220.24 80.8221H1223.31V76.3581L1220.24 80.8221Z" fill="#C6CCFF"/>
<path d="M734.607 238.619L729.428 223.812H732.962L735.846 232.952L736.659 235.613H736.801L737.593 232.952L740.498 223.812H744.032L738.873 238.619H734.607ZM748.947 238.802C745.535 238.802 743.524 236.588 743.524 233.257C743.524 229.743 745.616 227.529 748.846 227.529C752.624 227.529 754.411 230.231 754.046 233.846H746.469C746.449 235.573 747.444 236.548 748.947 236.548C750.085 236.548 750.938 235.999 751.161 235.166H753.985C753.7 237.36 751.689 238.802 748.947 238.802ZM748.846 229.784C747.485 229.784 746.612 230.617 746.49 231.937H751.121C751.039 230.495 750.085 229.784 748.846 229.784ZM760.363 238.823C757.195 238.823 755.407 237.36 755.427 235.187H758.352C758.373 236.344 759.266 236.812 760.444 236.812C761.663 236.812 762.293 236.365 762.293 235.634C762.293 234.638 761.602 234.496 760.059 234.273C757.641 233.948 755.712 233.379 755.712 230.982C755.712 228.687 757.621 227.529 760.465 227.529C763.247 227.529 765.015 228.809 765.076 230.962H762.151C762.151 230.048 761.46 229.54 760.384 229.54C759.266 229.54 758.698 230.007 758.698 230.677C758.698 231.49 759.388 231.734 760.993 231.937C763.247 232.241 765.299 232.688 765.299 235.349C765.299 237.746 763.43 238.823 760.363 238.823ZM770.898 238.619C768.684 238.619 768.115 237.604 768.115 235.959V230.129H766.165V227.732H768.115V224.767L771.081 224.482V227.732H773.274V230.129H771.081V235.39C771.081 236.04 771.385 236.202 771.954 236.202H773.274V238.619H770.898ZM775.118 226.331V223.812H778.104V226.331H775.118ZM775.118 238.619V227.732H778.104V238.619H775.118ZM780.672 238.619V227.732H783.536L783.658 229.703H783.78C784.369 228.26 785.709 227.529 787.253 227.529C789.426 227.529 791.092 228.768 791.092 232.038V238.619H788.106V232.688C788.106 230.86 787.497 229.967 786.054 229.967C784.511 229.967 783.658 231.185 783.658 232.566V238.619H780.672ZM798.115 242.215C795.231 242.215 793.505 240.915 793.342 238.904H796.206C796.348 239.635 797.079 240.102 798.176 240.102C799.923 240.102 800.634 239.371 800.634 237.868V235.999H800.472C799.984 237.177 798.745 237.969 797.181 237.969C794.581 237.969 792.895 236.182 792.895 232.749C792.895 229.317 794.622 227.529 797.201 227.529C798.765 227.529 799.984 228.301 800.472 229.479H800.634L800.715 227.732H803.62V237.319C803.62 240.955 801.406 242.215 798.115 242.215ZM798.278 235.674C799.801 235.674 800.573 234.557 800.634 233.379L800.614 232.079C800.553 230.942 799.801 229.824 798.298 229.824C796.856 229.824 795.942 230.779 795.942 232.749C795.942 234.72 796.876 235.674 798.278 235.674ZM813.656 238.619V226.554H809.289V223.812H821.273V226.554H816.804V238.619H813.656ZM822.724 238.619V223.812H825.709V229.703H825.831C826.42 228.26 827.761 227.529 829.305 227.529C831.478 227.529 833.143 228.768 833.143 232.038V238.619H830.158V232.688C830.158 230.86 829.548 229.967 828.106 229.967C826.562 229.967 825.709 231.185 825.709 232.566V238.619H822.724ZM835.597 238.619V227.732H838.298L838.42 229.479H838.522C839.009 228.078 840.147 227.59 841.528 227.59H842.137V230.393H841.467C839.456 230.393 838.623 231.307 838.583 232.932V238.619H835.597ZM848.285 238.802C844.872 238.802 842.861 236.588 842.861 233.257C842.861 229.743 844.953 227.529 848.183 227.529C851.961 227.529 853.748 230.231 853.383 233.846H845.807C845.786 235.573 846.782 236.548 848.285 236.548C849.422 236.548 850.275 235.999 850.499 235.166H853.322C853.038 237.36 851.027 238.802 848.285 238.802ZM848.183 229.784C846.822 229.784 845.949 230.617 845.827 231.937H850.458C850.377 230.495 849.422 229.784 848.183 229.784ZM860.305 238.802C856.893 238.802 854.882 236.588 854.882 233.257C854.882 229.743 856.974 227.529 860.203 227.529C863.981 227.529 865.769 230.231 865.403 233.846H857.827C857.807 235.573 858.802 236.548 860.305 236.548C861.443 236.548 862.296 235.999 862.519 235.166H865.342C865.058 237.36 863.047 238.802 860.305 238.802ZM860.203 229.784C858.843 229.784 857.969 230.617 857.847 231.937H862.478C862.397 230.495 861.443 229.784 860.203 229.784Z" fill="#00CBD9"/>
<path d="M735.763 264.426C732.259 264.426 729.907 262.234 729.907 258.442C729.907 254.666 732.259 252.474 735.763 252.474C738.755 252.474 740.883 254.138 741.203 256.634H738.675C738.387 255.434 737.299 254.602 735.763 254.602C733.763 254.602 732.483 255.882 732.483 258.442C732.483 261.034 733.763 262.298 735.763 262.298C737.251 262.298 738.419 261.482 738.675 260.25H741.203C740.915 262.762 738.707 264.426 735.763 264.426ZM742.761 264.282V252.618H745.113V264.282H742.761ZM750.048 264.426C748 264.426 746.624 262.938 746.624 259.994C746.624 257.034 748 255.546 750.048 255.546C751.376 255.546 752.368 256.202 752.768 257.194H752.896L752.992 255.706H755.248V264.282H752.896V262.778H752.768C752.368 263.77 751.376 264.426 750.048 264.426ZM750.944 262.522C752.256 262.522 752.864 261.498 752.864 260.394V259.578C752.864 258.474 752.256 257.45 750.944 257.45C749.792 257.45 749.024 258.25 749.024 259.994C749.024 261.722 749.792 262.522 750.944 262.522ZM757.261 254.602V252.618H759.613V254.602H757.261ZM757.261 264.282V255.706H759.613V264.282H757.261ZM761.636 264.282V255.706H763.908L763.988 257.258H764.084C764.516 256.122 765.556 255.546 766.708 255.546C767.908 255.546 768.964 256.058 769.428 257.466H769.556C769.956 256.186 771.092 255.546 772.388 255.546C774.036 255.546 775.316 256.522 775.316 259.098V264.282H772.964V259.61C772.964 258.17 772.516 257.466 771.444 257.466C770.308 257.466 769.652 258.426 769.652 259.514V264.282H767.3V259.61C767.3 258.17 766.836 257.466 765.78 257.466C764.628 257.466 763.988 258.426 763.988 259.514V264.282H761.636ZM780.284 264.282V263.946C780.284 259.178 785.916 258.714 785.916 256.17C785.916 255.21 785.26 254.618 784.284 254.618C783.244 254.618 782.556 255.29 782.652 256.506H780.316C780.252 254.138 781.916 252.602 784.428 252.602C786.78 252.602 788.348 253.914 788.348 256.058C788.348 259.45 784.172 260.282 783.276 262.218H788.46V264.282H780.284ZM794.104 264.426C791.576 264.426 789.944 262.954 789.896 260.778H792.28C792.312 261.738 793.032 262.378 794.12 262.378C795.304 262.378 796.024 261.578 796.024 260.458C796.024 259.274 795.288 258.474 794.104 258.474C793.192 258.474 792.6 258.938 792.36 259.578H790.12L790.424 252.746H797.72V254.794H792.504L792.392 257.21L792.488 257.242C792.92 256.81 793.752 256.522 794.616 256.522C796.968 256.522 798.408 258.138 798.408 260.394C798.408 262.81 796.76 264.426 794.104 264.426ZM801.64 264.282L809.048 252.618H810.664L803.24 264.282H801.64ZM802.312 258.842C800.76 258.842 799.864 257.61 799.864 255.738C799.864 253.802 800.856 252.666 802.344 252.666C803.88 252.666 804.776 253.914 804.776 255.77C804.776 257.738 803.768 258.842 802.312 258.842ZM802.312 257.53C802.808 257.53 803.208 257.29 803.208 255.754C803.208 254.234 802.808 253.994 802.312 253.994C801.832 253.994 801.432 254.234 801.432 255.754C801.432 257.274 801.832 257.53 802.312 257.53ZM809.96 264.346C808.424 264.346 807.528 263.082 807.528 261.226C807.528 259.274 808.52 258.154 810.008 258.154C811.544 258.154 812.44 259.402 812.44 261.258C812.44 263.226 811.448 264.346 809.96 264.346ZM809.992 263.018C810.472 263.018 810.872 262.778 810.872 261.242C810.872 259.722 810.472 259.482 809.992 259.482C809.496 259.482 809.096 259.706 809.096 261.242C809.096 262.778 809.496 263.018 809.992 263.018ZM821.365 264.426C818.789 264.426 817.061 262.778 817.061 259.994C817.061 257.338 818.645 255.546 821.365 255.546C823.925 255.546 825.653 257.21 825.653 259.994C825.653 262.65 824.069 264.426 821.365 264.426ZM821.349 262.522C822.501 262.522 823.269 261.706 823.269 259.994C823.269 258.298 822.533 257.466 821.365 257.466C820.197 257.466 819.429 258.282 819.429 259.994C819.429 261.69 820.181 262.522 821.349 262.522ZM827.152 264.282V255.706H829.408L829.504 257.258H829.6C830.064 256.122 831.12 255.546 832.336 255.546C834.048 255.546 835.36 256.522 835.36 259.098V264.282H833.008V259.61C833.008 258.17 832.528 257.466 831.392 257.466C830.176 257.466 829.504 258.426 829.504 259.514V264.282H827.152ZM730.611 285.282V273.618H733.587L738.499 281.858H738.611L738.515 278.13V273.618H740.915V285.282H738.099L733.187 277.218H733.075L733.139 280.594V285.282H730.611ZM746.975 285.426C744.399 285.426 742.671 283.778 742.671 280.994C742.671 278.338 744.255 276.546 746.975 276.546C749.535 276.546 751.263 278.21 751.263 280.994C751.263 283.65 749.679 285.426 746.975 285.426ZM746.959 283.522C748.111 283.522 748.879 282.706 748.879 280.994C748.879 279.298 748.143 278.466 746.975 278.466C745.807 278.466 745.039 279.282 745.039 280.994C745.039 282.69 745.791 283.522 746.959 283.522ZM754.384 285.282L751.456 276.69H753.984L755.28 281.282L755.792 283.33H755.872L756.384 281.298L757.68 276.69H760.224L757.312 285.282H754.384ZM764.693 285.426C762.005 285.426 760.421 283.682 760.421 281.058C760.421 278.29 762.069 276.546 764.613 276.546C767.589 276.546 768.997 278.674 768.709 281.522H762.741C762.725 282.882 763.509 283.65 764.693 283.65C765.589 283.65 766.261 283.218 766.437 282.562H768.661C768.437 284.29 766.853 285.426 764.693 285.426ZM764.613 278.322C763.541 278.322 762.853 278.978 762.757 280.018H766.405C766.341 278.882 765.589 278.322 764.613 278.322ZM770.245 285.282V276.706H772.517L772.597 278.258H772.693C773.125 277.122 774.165 276.546 775.317 276.546C776.517 276.546 777.573 277.058 778.037 278.466H778.165C778.565 277.186 779.701 276.546 780.997 276.546C782.645 276.546 783.925 277.522 783.925 280.098V285.282H781.573V280.61C781.573 279.17 781.125 278.466 780.053 278.466C778.917 278.466 778.261 279.426 778.261 280.514V285.282H775.909V280.61C775.909 279.17 775.445 278.466 774.389 278.466C773.237 278.466 772.597 279.426 772.597 280.514V285.282H770.245ZM791.055 285.442C789.727 285.442 788.735 284.77 788.335 283.794H788.207L788.111 285.282H785.855V273.618H788.207V278.194H788.335C788.735 277.202 789.727 276.546 791.055 276.546C793.103 276.546 794.479 278.034 794.479 280.994C794.479 283.938 793.103 285.442 791.055 285.442ZM790.159 283.538C791.311 283.538 792.079 282.738 792.079 280.994C792.079 279.25 791.311 278.45 790.159 278.45C788.847 278.45 788.223 279.49 788.223 280.578V281.41C788.223 282.498 788.847 283.538 790.159 283.538ZM799.896 285.426C797.208 285.426 795.624 283.682 795.624 281.058C795.624 278.29 797.272 276.546 799.816 276.546C802.792 276.546 804.2 278.674 803.912 281.522H797.944C797.928 282.882 798.712 283.65 799.896 283.65C800.792 283.65 801.464 283.218 801.64 282.562H803.864C803.64 284.29 802.056 285.426 799.896 285.426ZM799.816 278.322C798.744 278.322 798.056 278.978 797.96 280.018H801.608C801.544 278.882 800.792 278.322 799.816 278.322ZM805.448 285.282V276.706H807.576L807.672 278.082H807.752C808.136 276.978 809.032 276.594 810.12 276.594H810.6V278.802H810.072C808.488 278.802 807.832 279.522 807.8 280.802V285.282H805.448ZM817.501 285.282V277.538H814.589V275.746H815.069C816.589 275.746 817.517 274.946 817.629 273.746H819.853V285.282H817.501ZM827.284 285.282L827.268 282.642H821.876V280.882L826.708 273.746H829.636V280.722H831.14L831.124 282.642H829.636V285.282H827.284ZM824.212 280.722H827.284V276.258L824.212 280.722ZM835.609 285.282C833.865 285.282 833.417 284.482 833.417 283.186V278.594H831.881V276.706H833.417V274.37L835.753 274.146V276.706H837.481V278.594H835.753V282.738C835.753 283.25 835.993 283.378 836.441 283.378H837.481V285.282H835.609ZM838.933 285.282V273.618H841.285V278.258H841.381C841.845 277.122 842.901 276.546 844.117 276.546C845.829 276.546 847.141 277.522 847.141 280.098V285.282H844.789V280.61C844.789 279.17 844.309 278.466 843.173 278.466C841.957 278.466 841.285 279.426 841.285 280.514V285.282H838.933ZM852.112 285.282V284.946C852.112 280.178 857.744 279.714 857.744 277.17C857.744 276.21 857.088 275.618 856.112 275.618C855.072 275.618 854.384 276.29 854.48 277.506H852.144C852.08 275.138 853.744 273.602 856.256 273.602C858.608 273.602 860.176 274.914 860.176 277.058C860.176 280.45 856 281.282 855.104 283.218H860.288V285.282H852.112ZM865.852 285.394C863.116 285.394 861.484 283.138 861.484 279.474C861.484 275.698 863.244 273.602 865.9 273.602C868.62 273.602 870.236 275.858 870.236 279.506C870.236 283.314 868.476 285.394 865.852 285.394ZM865.868 283.41C867.052 283.41 867.9 282.53 867.9 279.49C867.9 276.45 867.052 275.586 865.868 275.586C864.668 275.586 863.836 276.45 863.836 279.49C863.836 282.53 864.668 283.41 865.868 283.41ZM871.377 285.282V284.946C871.377 280.178 877.009 279.714 877.009 277.17C877.009 276.21 876.353 275.618 875.377 275.618C874.337 275.618 873.649 276.29 873.745 277.506H871.409C871.345 275.138 873.009 273.602 875.521 273.602C877.873 273.602 879.441 274.914 879.441 277.058C879.441 280.45 875.265 281.282 874.369 283.218H879.553V285.282H871.377ZM885.847 285.282L885.831 282.642H880.439V280.882L885.271 273.746H888.199V280.722H889.703L889.687 282.642H888.199V285.282H885.847ZM882.775 280.722H885.847V276.258L882.775 280.722Z" fill="#C6CCFF"/>
<path d="M12.6479 221.775C35.4554 198.242 86.2129 146.293 106.783 126.769C143.07 92.3271 203.969 66.6265 277.186 150.302C309.436 185.167 358.682 248.796 445.409 202.164C497.706 172.529 523.419 157.711 544.774 145.073C566.129 132.434 604.459 96.5659 679.004 164.684C716.5 198.948 763.722 210.009 804.953 154.225C819.771 134.177 855.943 68.3698 863.352 57.4745C870.761 46.5793 926.107 -38.291 991.916 30.89C1012.09 52.1003 1019.46 69.2922 1042.47 105.414C1060.68 134.002 1124.4 223.083 1266.04 99.7482" stroke="url(#paint0_linear_4349_902)" stroke-width="7"/>
<path d="M1263.59 100.056L1248.76 95.6126L1278.9 88.0396L1266.26 117.529L1263.59 100.056Z" fill="#047EFB"/>
<circle cx="15.5" cy="224" r="11.9493" fill="#0B0620" stroke="#01D5E6" stroke-width="6.10136"/>
<circle cx="351.075" cy="214.063" r="11.5" fill="#0B0620" stroke="#02BDEC" stroke-width="7"/>
<circle cx="738.947" cy="191.016" r="11.5" fill="#0B0620" stroke="#03A1F2" stroke-width="7"/>
<circle cx="1076.5" cy="144" r="11.5" fill="#0B0620" stroke="#0389F8" stroke-width="7"/>
<defs>
<linearGradient id="paint0_linear_4349_902" x1="12.6479" y1="118.249" x2="1266.04" y2="118.249" gradientUnits="userSpaceOnUse">
<stop stop-color="#01D6E6"/>
<stop offset="1" stop-color="#047DFB"/>
</linearGradient>
</defs>
</svg>
