<svg width="22" height="23" viewBox="0 0 22 23" fill="none" xmlns="http://www.w3.org/2000/svg">
<g id="users-alt_5069162 1" clip-path="url(#clip0_498_43)">
<path id="Vector" d="M11 15.1667C10.2748 15.1667 9.56589 14.9516 8.96291 14.5487C8.35993 14.1458 7.88996 13.5732 7.61244 12.9032C7.33492 12.2332 7.26231 11.4959 7.40379 10.7847C7.54527 10.0734 7.89448 9.42007 8.40728 8.90728C8.92007 8.39448 9.57341 8.04527 10.2847 7.90379C10.9959 7.76231 11.7332 7.83492 12.4032 8.11244C13.0732 8.38996 13.6458 8.85993 14.0487 9.46291C14.4516 10.0659 14.6667 10.7748 14.6667 11.5C14.6667 12.4725 14.2804 13.4051 13.5927 14.0927C12.9051 14.7804 11.9725 15.1667 11 15.1667ZM11 9.66667C10.6374 9.66667 10.2829 9.77419 9.98145 9.97564C9.67997 10.1771 9.44498 10.4634 9.30622 10.7984C9.16746 11.1334 9.13115 11.502 9.20189 11.8577C9.27263 12.2133 9.44724 12.54 9.70364 12.7964C9.96003 13.0528 10.2867 13.2274 10.6423 13.2981C10.998 13.3688 11.3666 13.3325 11.7016 13.1938C12.0366 13.055 12.3229 12.82 12.5244 12.5185C12.7258 12.2171 12.8333 11.8626 12.8333 11.5C12.8333 11.0138 12.6402 10.5475 12.2964 10.2036C11.9525 9.85982 11.4862 9.66667 11 9.66667ZM16.5 21.5833C16.5 20.1246 15.9205 18.7257 14.8891 17.6942C13.8576 16.6628 12.4587 16.0833 11 16.0833C9.54131 16.0833 8.14236 16.6628 7.11091 17.6942C6.07946 18.7257 5.5 20.1246 5.5 21.5833C5.5 21.8265 5.59658 22.0596 5.76849 22.2315C5.94039 22.4034 6.17355 22.5 6.41667 22.5C6.65978 22.5 6.89294 22.4034 7.06485 22.2315C7.23676 22.0596 7.33333 21.8265 7.33333 21.5833C7.33333 20.6109 7.71964 19.6782 8.40728 18.9906C9.09491 18.303 10.0275 17.9167 11 17.9167C11.9725 17.9167 12.9051 18.303 13.5927 18.9906C14.2804 19.6782 14.6667 20.6109 14.6667 21.5833C14.6667 21.8265 14.7632 22.0596 14.9352 22.2315C15.1071 22.4034 15.3402 22.5 15.5833 22.5C15.8264 22.5 16.0596 22.4034 16.2315 22.2315C16.4034 22.0596 16.5 21.8265 16.5 21.5833ZM16.5 7.83334C15.7748 7.83334 15.0659 7.61829 14.4629 7.21539C13.8599 6.81249 13.39 6.23984 13.1124 5.56984C12.8349 4.89985 12.7623 4.1626 12.9038 3.45134C13.0453 2.74007 13.3945 2.08674 13.9073 1.57394C14.4201 1.06115 15.0734 0.711935 15.7847 0.570456C16.4959 0.428976 17.2332 0.501589 17.9032 0.77911C18.5732 1.05663 19.1458 1.5266 19.5487 2.12958C19.9516 2.73256 20.1667 3.44147 20.1667 4.16667C20.1667 5.13913 19.7804 6.07176 19.0927 6.75939C18.4051 7.44703 17.4725 7.83334 16.5 7.83334ZM16.5 2.33334C16.1374 2.33334 15.7829 2.44086 15.4815 2.64231C15.18 2.84376 14.945 3.13008 14.8062 3.46508C14.6675 3.80008 14.6312 4.1687 14.7019 4.52433C14.7726 4.87997 14.9472 5.20663 15.2036 5.46303C15.46 5.71943 15.7867 5.89404 16.1423 5.96478C16.498 6.03551 16.8666 5.99921 17.2016 5.86045C17.5366 5.72169 17.8229 5.4867 18.0244 5.18521C18.2258 4.88372 18.3333 4.52927 18.3333 4.16667C18.3333 3.68044 18.1402 3.21412 17.7964 2.87031C17.4525 2.52649 16.9862 2.33334 16.5 2.33334ZM22 14.25C21.9985 12.7918 21.4186 11.3937 20.3875 10.3625C19.3563 9.33139 17.9582 8.75146 16.5 8.75C16.2569 8.75 16.0237 8.84658 15.8518 9.01849C15.6799 9.1904 15.5833 9.42355 15.5833 9.66667C15.5833 9.90978 15.6799 10.1429 15.8518 10.3148C16.0237 10.4868 16.2569 10.5833 16.5 10.5833C17.4725 10.5833 18.4051 10.9696 19.0927 11.6573C19.7804 12.3449 20.1667 13.2775 20.1667 14.25C20.1667 14.4931 20.2632 14.7263 20.4352 14.8982C20.6071 15.0701 20.8402 15.1667 21.0833 15.1667C21.3264 15.1667 21.5596 15.0701 21.7315 14.8982C21.9034 14.7263 22 14.4931 22 14.25ZM5.5 7.83334C4.7748 7.83334 4.06589 7.61829 3.46291 7.21539C2.85993 6.81249 2.38996 6.23984 2.11244 5.56984C1.83492 4.89985 1.76231 4.1626 1.90379 3.45134C2.04527 2.74007 2.39448 2.08674 2.90728 1.57394C3.42007 1.06115 4.07341 0.711935 4.78467 0.570456C5.49593 0.428976 6.23318 0.501589 6.90317 0.77911C7.57317 1.05663 8.14582 1.5266 8.54872 2.12958C8.95162 2.73256 9.16667 3.44147 9.16667 4.16667C9.16667 5.13913 8.78036 6.07176 8.09272 6.75939C7.40509 7.44703 6.47246 7.83334 5.5 7.83334ZM5.5 2.33334C5.1374 2.33334 4.78295 2.44086 4.48145 2.64231C4.17996 2.84376 3.94498 3.13008 3.80622 3.46508C3.66746 3.80008 3.63115 4.1687 3.70189 4.52433C3.77263 4.87997 3.94724 5.20663 4.20364 5.46303C4.46003 5.71943 4.7867 5.89404 5.14233 5.96478C5.49797 6.03551 5.86659 5.99921 6.20159 5.86045C6.53658 5.72169 6.82291 5.4867 7.02436 5.18521C7.22581 4.88372 7.33333 4.52927 7.33333 4.16667C7.33333 3.68044 7.14018 3.21412 6.79636 2.87031C6.45255 2.52649 5.98623 2.33334 5.5 2.33334ZM1.83333 14.25C1.83333 13.2775 2.21964 12.3449 2.90728 11.6573C3.59491 10.9696 4.52754 10.5833 5.5 10.5833C5.74312 10.5833 5.97627 10.4868 6.14818 10.3148C6.32009 10.1429 6.41667 9.90978 6.41667 9.66667C6.41667 9.42355 6.32009 9.1904 6.14818 9.01849C5.97627 8.84658 5.74312 8.75 5.5 8.75C4.04176 8.75146 2.64366 9.33139 1.61252 10.3625C0.581386 11.3937 0.00145606 12.7918 0 14.25C0 14.4931 0.0965771 14.7263 0.268485 14.8982C0.440394 15.0701 0.673552 15.1667 0.916667 15.1667C1.15978 15.1667 1.39294 15.0701 1.56485 14.8982C1.73676 14.7263 1.83333 14.4931 1.83333 14.25Z" fill="black"/>
</g>
<defs>
<clipPath id="clip0_498_43">
<rect width="22" height="22" fill="white" transform="translate(0 0.5)"/>
</clipPath>
</defs>
</svg>
