<svg width="40" height="40" viewBox="0 0 40 40" fill="none" xmlns="http://www.w3.org/2000/svg">
<path fill-rule="evenodd" clip-rule="evenodd" d="M31.4187 10.7521C31.5613 10.6097 31.6743 10.4407 31.7516 10.2546C31.8288 10.0686 31.8686 9.86911 31.8687 9.66767C31.8688 9.46623 31.8292 9.26674 31.7523 9.08058C31.6753 8.89443 31.5624 8.72526 31.4201 8.58273C31.2777 8.4402 31.1087 8.32711 30.9226 8.2499C30.7366 8.1727 30.5371 8.1329 30.3357 8.13278C30.1342 8.13265 29.9347 8.17221 29.7486 8.24918C29.5624 8.32616 29.3933 8.43904 29.2507 8.5814L20.0001 17.8321L10.7521 8.5814C10.4642 8.29355 10.0738 8.13184 9.66673 8.13184C9.25965 8.13184 8.86924 8.29355 8.5814 8.5814C8.29355 8.86924 8.13184 9.25965 8.13184 9.66673C8.13184 10.0738 8.29355 10.4642 8.5814 10.7521L17.8321 20.0001L8.5814 29.2481C8.43887 29.3906 8.32581 29.5598 8.24867 29.746C8.17154 29.9322 8.13184 30.1318 8.13184 30.3334C8.13184 30.535 8.17154 30.7346 8.24867 30.9208C8.32581 31.107 8.43887 31.2762 8.5814 31.4187C8.86924 31.7066 9.25965 31.8683 9.66673 31.8683C9.86829 31.8683 10.0679 31.8286 10.2541 31.7515C10.4403 31.6743 10.6095 31.5613 10.7521 31.4187L20.0001 22.1681L29.2507 31.4187C29.5386 31.7062 29.9288 31.8676 30.3357 31.8673C30.7425 31.8671 31.1326 31.7052 31.4201 31.4174C31.7076 31.1295 31.8689 30.7393 31.8687 30.3325C31.8684 29.9256 31.7066 29.5356 31.4187 29.2481L22.1681 20.0001L31.4187 10.7521Z" fill="white"/>
</svg>
