<svg width="22" height="23" viewBox="0 0 22 23" fill="none" xmlns="http://www.w3.org/2000/svg">
<g id="track_13794493 1" clip-path="url(#clip0_498_45)">
<path id="Vector" d="M15.8098 9.92242C16.2525 10.356 16.8346 10.5723 17.4167 10.5723C17.9988 10.5723 18.5808 10.356 19.0227 9.92242L20.6571 8.32375C22.4446 6.53625 22.4446 3.62858 20.6571 1.842C19.7917 0.976667 18.6404 0.5 17.4167 0.5C16.1929 0.5 15.0416 0.976667 14.1753 1.842C12.3888 3.6295 12.3888 6.53717 14.1827 8.33108L15.8098 9.92242ZM15.4715 3.13908C15.9913 2.61933 16.6815 2.33333 17.4167 2.33333C18.1518 2.33333 18.8421 2.61933 19.3609 3.13817C20.4334 4.21067 20.4334 5.95508 19.3682 7.02025L17.7412 8.61158C17.5624 8.78758 17.2709 8.78758 17.0922 8.61158L15.4724 7.02758C14.4008 5.95508 14.4008 4.21067 15.4724 3.13817L15.4715 3.13908ZM3.66667 20.6667C3.66667 21.6796 2.84625 22.5 1.83333 22.5C0.820417 22.5 0 21.6796 0 20.6667C0 19.6537 0.820417 18.8333 1.83333 18.8333C2.84625 18.8333 3.66667 19.6537 3.66667 20.6667ZM13.2917 15.1667C13.2917 16.1796 12.4713 17 11.4583 17C10.4454 17 9.625 16.1796 9.625 15.1667C9.625 14.1538 10.4454 13.3333 11.4583 13.3333C12.4713 13.3333 13.2917 14.1538 13.2917 15.1667ZM1.83333 12.4167C1.83333 10.3945 3.47783 8.75 5.5 8.75H11.9167C12.4227 8.75 12.8333 9.16067 12.8333 9.66667C12.8333 10.1727 12.4227 10.5833 11.9167 10.5833H5.5C4.48892 10.5833 3.66667 11.4056 3.66667 12.4167C3.66667 13.4278 4.48892 14.25 5.5 14.25H7.33333C7.83933 14.25 8.25 14.6607 8.25 15.1667C8.25 15.6727 7.83933 16.0833 7.33333 16.0833H5.5C3.47783 16.0833 1.83333 14.4388 1.83333 12.4167ZM22 17.9167C22 19.9388 20.3555 21.5833 18.3333 21.5833H6.41667C5.91067 21.5833 5.5 21.1727 5.5 20.6667C5.5 20.1607 5.91067 19.75 6.41667 19.75H18.3333C19.3444 19.75 20.1667 18.9277 20.1667 17.9167C20.1667 16.9056 19.3444 16.0833 18.3333 16.0833H15.5833C15.0773 16.0833 14.6667 15.6727 14.6667 15.1667C14.6667 14.6607 15.0773 14.25 15.5833 14.25H18.3333C20.3555 14.25 22 15.8945 22 17.9167ZM18.3342 4.88808C18.3342 5.39408 17.9236 5.80475 17.4176 5.80475C16.9116 5.80475 16.5009 5.39408 16.5009 4.88808C16.5009 4.38208 16.9116 3.97142 17.4176 3.97142C17.9236 3.97142 18.3342 4.38208 18.3342 4.88808Z" fill="black"/>
</g>
<defs>
<clipPath id="clip0_498_45">
<rect width="22" height="22" fill="white" transform="translate(0 0.5)"/>
</clipPath>
</defs>
</svg>
