<svg width="23" height="21" viewBox="0 0 23 21" fill="none" xmlns="http://www.w3.org/2000/svg">
<g id="safe-box_13794340 2" clip-path="url(#clip0_498_22)">
<path id="Vector" d="M22.5 17.5H20.6667V19.25H18.8333V17.5H13.3333V15.75H20.6667V13.125H18.8333V11.375H20.6667V6.125H18.8333V4.375H20.6667V2.625C20.6667 2.14287 20.2551 1.75 19.75 1.75H3.25C2.74492 1.75 2.33333 2.14287 2.33333 2.625V6.71125C1.63575 6.958 1.02067 7.28 0.5 7.65975V2.625C0.5 2.61013 0.5 2.59437 0.500917 2.5795C0.526583 1.15325 1.74942 0 3.25 0H19.75C21.2662 0 22.5 1.17775 22.5 2.625V17.5ZM11.5 10.9375V17.9375C11.5 19.6831 9.135 21 6 21C2.865 21 0.5 19.6831 0.5 17.9375V10.9375C0.5 9.19188 2.865 7.875 6 7.875C9.135 7.875 11.5 9.19188 11.5 10.9375ZM9.66667 17.9375V16.758C8.70783 17.2244 7.43458 17.5 6 17.5C4.56542 17.5 3.29217 17.2244 2.33333 16.758V17.9375C2.33333 18.4004 3.72575 19.25 6 19.25C8.27425 19.25 9.66667 18.4004 9.66667 17.9375ZM9.66667 14.4375V13.258C8.70783 13.7244 7.43458 14 6 14C4.56542 14 3.29217 13.7244 2.33333 13.258V14.4375C2.33333 14.9004 3.72575 15.75 6 15.75C8.27425 15.75 9.66667 14.9004 9.66667 14.4375ZM9.66667 10.9375C9.66667 10.4746 8.27425 9.625 6 9.625C3.72575 9.625 2.33333 10.4746 2.33333 10.9375C2.33333 11.4004 3.72575 12.25 6 12.25C8.27425 12.25 9.66667 11.4004 9.66667 10.9375ZM13.3333 11.0408V13.2904C14.9742 12.3813 16.0833 10.689 16.0833 8.75088C16.0833 5.8555 13.6166 3.50087 10.5833 3.50087C8.55017 3.50087 6.77642 4.56138 5.824 6.13112C5.88358 6.13112 5.94042 6.12587 6 6.12587C6.69575 6.12587 7.35667 6.18537 7.98183 6.28862C8.64642 5.649 9.56675 5.25087 10.5833 5.25087C12.6055 5.25087 14.25 6.82063 14.25 8.75088C14.25 9.63025 13.8971 10.4256 13.3333 11.0416V11.0408Z" fill="black"/>
</g>
<defs>
<clipPath id="clip0_498_22">
<rect width="22" height="21" fill="white" transform="translate(0.5)"/>
</clipPath>
</defs>
</svg>
