<svg width="100" height="80" viewBox="0 0 100 80" fill="none" xmlns="http://www.w3.org/2000/svg">
<path fill-rule="evenodd" clip-rule="evenodd" d="M89.0267 5.69339C89.6526 5.06748 90.0042 4.21857 90.0042 3.33339C90.0042 2.44822 89.6526 1.5993 89.0267 0.973394C88.4008 0.347483 87.5518 -0.00415037 86.6667 -0.00415039C85.7815 -0.00415041 84.9326 0.347483 84.3067 0.973394L71.22 14.0667C64.473 11.3628 57.2687 9.98211 50 10.0001C28.72 10.0001 11.04 21.3734 0.506675 38.2334C0.175566 38.7632 0 39.3753 0 40.0001C0 40.6248 0.175566 41.237 0.506675 41.7667C6.02001 50.5867 13.4867 57.9067 22.4067 62.8801L10.9733 74.3067C10.3474 74.9326 9.9958 75.7816 9.9958 76.6667C9.9958 77.5519 10.3474 78.4008 10.9733 79.0267C11.5993 79.6526 12.4482 80.0043 13.3333 80.0043C14.2185 80.0043 15.0674 79.6526 15.6933 79.0267L28.78 65.9334C35.2867 68.5534 42.4133 70.0001 50 70.0001C71.28 70.0001 88.96 58.6267 99.4933 41.7667C99.8245 41.237 100 40.6248 100 40.0001C100 39.3753 99.8245 38.7632 99.4933 38.2334C93.98 29.4134 86.5133 22.0934 77.5933 17.1201L89.0267 5.69339ZM66.0267 19.2601C60.8614 17.5283 55.4478 16.6523 50 16.6667C32.02 16.6667 16.8667 25.8534 7.30667 40.0001C12.4867 47.6667 19.3067 53.8734 27.3333 57.9534L66.0267 19.2601ZM33.9733 60.7334L72.6667 22.0467C80.6933 26.1267 87.5133 32.3334 92.6933 40.0001C83.1333 54.1467 67.98 63.3334 50 63.3334C44.5522 63.3478 39.1386 62.4718 33.9733 60.7401" fill="#ffffffb6"/>
</svg>
