<svg width="22" height="23" viewBox="0 0 22 23" fill="none" xmlns="http://www.w3.org/2000/svg">
<g id="fog_6853948 1" clip-path="url(#clip0_498_51)">
<path id="Vector" d="M16.5 22.5001H15.5833C15.3402 22.5001 15.107 22.4035 14.9351 22.2316C14.7632 22.0597 14.6666 21.8266 14.6666 21.5834C14.6666 21.3403 14.7632 21.1072 14.9351 20.9353C15.107 20.7633 15.3402 20.6668 15.5833 20.6668H16.5C16.7431 20.6668 16.9762 20.7633 17.1481 20.9353C17.3201 21.1072 17.4166 21.3403 17.4166 21.5834C17.4166 21.8266 17.3201 22.0597 17.1481 22.2316C16.9762 22.4035 16.7431 22.5001 16.5 22.5001ZM11.9166 22.5001H5.49996C5.25685 22.5001 5.02369 22.4035 4.85178 22.2316C4.67987 22.0597 4.58329 21.8266 4.58329 21.5834C4.58329 21.3403 4.67987 21.1072 4.85178 20.9353C5.02369 20.7633 5.25685 20.6668 5.49996 20.6668H11.9166C12.1597 20.6668 12.3929 20.7633 12.5648 20.9353C12.7367 21.1072 12.8333 21.3403 12.8333 21.5834C12.8333 21.8266 12.7367 22.0597 12.5648 22.2316C12.3929 22.4035 12.1597 22.5001 11.9166 22.5001ZM16.5 18.8334H10.0833C9.84018 18.8334 9.60702 18.7369 9.43511 18.565C9.26321 18.393 9.16663 18.1599 9.16663 17.9168C9.16663 17.6737 9.26321 17.4405 9.43511 17.2686C9.60702 17.0967 9.84018 17.0001 10.0833 17.0001H16.5C16.7431 17.0001 16.9762 17.0967 17.1481 17.2686C17.3201 17.4405 17.4166 17.6737 17.4166 17.9168C17.4166 18.1599 17.3201 18.393 17.1481 18.565C16.9762 18.7369 16.7431 18.8334 16.5 18.8334ZM6.41663 18.8334H5.49996C5.25685 18.8334 5.02369 18.7369 4.85178 18.565C4.67987 18.393 4.58329 18.1599 4.58329 17.9168C4.58329 17.6737 4.67987 17.4405 4.85178 17.2686C5.02369 17.0967 5.25685 17.0001 5.49996 17.0001H6.41663C6.65974 17.0001 6.8929 17.0967 7.06481 17.2686C7.23672 17.4405 7.33329 17.6737 7.33329 17.9168C7.33329 18.1599 7.23672 18.393 7.06481 18.565C6.8929 18.7369 6.65974 18.8334 6.41663 18.8334ZM2.44746 17.9168C2.23777 17.9169 2.03445 17.8447 1.8718 17.7124C1.31071 17.2523 0.854859 16.6773 0.535016 16.026C0.215172 15.3747 0.0387825 14.6624 0.0177555 13.9372C-0.00327154 13.2119 0.131554 12.4906 0.413128 11.8219C0.694703 11.1532 1.11647 10.5527 1.64996 10.0609C1.76792 9.96121 1.85875 9.83329 1.91404 9.68906C1.96933 9.54482 1.98728 9.38896 1.96621 9.23594C1.79837 8.36171 1.78844 7.4645 1.93688 6.58677C2.18326 5.1126 2.87723 3.74992 3.92462 2.68367C4.97201 1.61743 6.32208 0.899251 7.79163 0.626605C9.38794 0.329108 11.0378 0.566519 12.4855 1.30203C13.9331 2.03755 15.0977 3.23008 15.7987 4.69477C15.8634 4.8291 15.9588 4.94635 16.077 5.03711C16.1953 5.12786 16.3333 5.18957 16.4798 5.21727C21.8185 6.16511 23.8975 13.2555 19.888 16.9185C19.8018 17.0052 19.6992 17.0738 19.5861 17.1202C19.4731 17.1667 19.3519 17.1901 19.2296 17.189C19.1074 17.1879 18.9866 17.1624 18.8744 17.1139C18.7622 17.0655 18.6608 16.9951 18.5762 16.9069C18.4916 16.8187 18.4255 16.7144 18.3818 16.6003C18.3381 16.4861 18.3176 16.3644 18.3216 16.2422C18.3256 16.1201 18.354 16 18.4051 15.8889C18.4563 15.7779 18.5291 15.6782 18.6193 15.5958C19.2724 14.9529 19.7393 14.1453 19.9705 13.2585C20.2017 12.3718 20.1885 11.439 19.9324 10.5591C19.6763 9.67924 19.1868 8.88509 18.5158 8.26093C17.8449 7.63676 17.0174 7.20586 16.1214 7.01394C15.6942 6.93251 15.2923 6.75121 14.9485 6.48485C14.6047 6.21849 14.3288 5.8746 14.1432 5.48127C13.6455 4.42231 12.8231 3.54967 11.7954 2.99018C10.7678 2.4307 9.58846 2.21353 8.42892 2.37024C7.26938 2.52695 6.19003 3.04938 5.34776 3.86158C4.50549 4.67379 3.9442 5.73344 3.74546 6.88652C3.6336 7.54859 3.64074 8.2253 3.76655 8.88486C3.84769 9.34713 3.80916 9.82247 3.65465 10.2656C3.50013 10.7088 3.23476 11.1051 2.88379 11.4167C2.54422 11.7298 2.27576 12.1121 2.09654 12.5378C1.91732 12.9635 1.8315 13.4227 1.84488 13.8844C1.85826 14.3461 1.97053 14.7996 2.1741 15.2142C2.37768 15.6288 2.66782 15.9949 3.02496 16.2879C3.17221 16.4071 3.27886 16.5691 3.33024 16.7515C3.38163 16.934 3.37522 17.1278 3.3119 17.3064C3.24857 17.485 3.13145 17.6396 2.97665 17.7489C2.82184 17.8582 2.63697 17.9169 2.44746 17.9168ZM16.5 15.1668H15.5833C15.3402 15.1668 15.107 15.0702 14.9351 14.8983C14.7632 14.7264 14.6666 14.4932 14.6666 14.2501C14.6666 14.007 14.7632 13.7738 14.9351 13.6019C15.107 13.43 15.3402 13.3334 15.5833 13.3334H16.5C16.7431 13.3334 16.9762 13.43 17.1481 13.6019C17.3201 13.7738 17.4166 14.007 17.4166 14.2501C17.4166 14.4932 17.3201 14.7264 17.1481 14.8983C16.9762 15.0702 16.7431 15.1668 16.5 15.1668ZM11.9166 15.1668H5.49996C5.25685 15.1668 5.02369 15.0702 4.85178 14.8983C4.67987 14.7264 4.58329 14.4932 4.58329 14.2501C4.58329 14.007 4.67987 13.7738 4.85178 13.6019C5.02369 13.43 5.25685 13.3334 5.49996 13.3334H11.9166C12.1597 13.3334 12.3929 13.43 12.5648 13.6019C12.7367 13.7738 12.8333 14.007 12.8333 14.2501C12.8333 14.4932 12.7367 14.7264 12.5648 14.8983C12.3929 15.0702 12.1597 15.1668 11.9166 15.1668Z" fill="black"/>
</g>
<defs>
<clipPath id="clip0_498_51">
<rect width="22" height="22" fill="white" transform="translate(0 0.5)"/>
</clipPath>
</defs>
</svg>
