<svg width="100" height="97" viewBox="0 0 100 97" fill="none" xmlns="http://www.w3.org/2000/svg">
<path d="M50.0001 0.00634766C22.7319 0.00634766 0.626465 21.7162 0.626465 48.4982C0.626465 75.2802 22.7319 96.9917 50.0001 96.9917C77.2683 96.9917 99.3737 75.2802 99.3737 48.4982C99.3737 21.7162 77.2683 0.00634766 50.0001 0.00634766ZM80.6076 78.3839C72.4383 86.4063 61.5686 90.8254 50.0001 90.8254C38.4316 90.8254 27.5618 86.4063 19.3926 78.3839C11.258 70.3947 6.77825 59.7808 6.77825 48.4982C6.77825 37.2156 11.258 26.6034 19.3926 18.6141C27.5618 10.5901 38.4316 6.17258 50.0001 6.17258C61.5686 6.17258 72.4383 10.5901 80.6076 18.6141C88.7421 26.6034 93.2219 37.2172 93.2219 48.4982C93.2219 59.7793 88.7421 70.3947 80.6076 78.3839Z" fill="#01D6E6"/>
<path d="M87.2908 36.8916H80.2368C78.6452 32.9736 76.2381 29.3735 73.1007 26.2935C68.9459 22.2128 63.8557 19.37 58.2938 17.9549C56.2054 17.4237 54.0507 17.0932 51.855 16.9746V10.3262C61.6474 10.7689 70.7772 14.7137 77.7366 21.5503C82.1927 25.9267 85.4327 31.1712 87.2908 36.8916Z" fill="#01D6E6"/>
<path d="M47.3325 10.3706V17.0286C45.356 17.1835 43.4159 17.5092 41.5293 18.0009C36.0369 19.4302 31.0098 22.2556 26.8991 26.2937C23.7617 29.3737 21.3546 32.9738 19.763 36.8917H12.709C14.5671 31.1714 17.8071 25.9269 22.2632 21.5505C29.0301 14.9036 37.8493 10.9888 47.3325 10.3706Z" fill="#01D6E6"/>
<path d="M18.7645 39.7471C18.1494 41.8294 17.7534 43.9828 17.5894 46.1789H10.9502C11.0827 43.9939 11.4045 41.8452 11.9045 39.7471H18.7645Z" fill="#01D6E6"/>
<path d="M89.0497 46.1789H82.4105C82.2464 43.9828 81.8505 41.8294 81.2354 39.7471H88.0954C88.5954 41.8452 88.9172 43.9939 89.0497 46.1789Z" fill="#01D6E6"/>
<path d="M89.1034 49.6431C89.0372 51.8819 88.7722 54.0891 88.3195 56.2441H81.5146C82.0683 54.1033 82.3933 51.893 82.4753 49.6431H89.1034Z" fill="#01D6E6"/>
<path d="M87.5842 59.1646C85.7829 65.2517 82.4357 70.8345 77.7366 75.4497C70.7772 82.2848 61.6474 86.2311 51.855 86.6739V80.0254C54.0507 79.9068 56.2054 79.5764 58.2938 79.0451C63.8557 77.63 68.9459 74.7873 73.1007 70.7065C76.4874 67.3799 79.0238 63.4477 80.6012 59.1646H87.5842Z" fill="#01D6E6"/>
<path d="M47.3324 79.9697V86.6276C37.8492 86.0094 29.0301 82.0931 22.2631 75.4478C17.5641 70.8326 14.2169 65.2498 12.4155 59.1626H19.3986C20.976 63.4458 23.5124 67.3779 26.899 70.7045C31.0097 74.741 36.0368 77.5664 41.5292 78.9973C43.4158 79.489 45.356 79.8147 47.3324 79.9697Z" fill="#01D6E6"/>
<path d="M18.4853 56.2441H11.6804C11.2277 54.0891 10.9627 51.8819 10.8965 49.6431H17.5246C17.6067 51.893 17.9316 54.1033 18.4853 56.2441Z" fill="#01D6E6"/>
<path d="M23.407 56.2441H18.4855C17.9319 54.1033 17.6069 51.893 17.5249 49.6431H22.2618C22.3596 51.9056 22.7476 54.1191 23.407 56.2441Z" fill="#01D6E6"/>
<path d="M82.4107 46.1789H77.6612C77.4656 43.9686 76.9924 41.812 76.2573 39.7471H81.2355C81.8507 41.8294 82.2466 43.9828 82.4107 46.1789Z" fill="#01D6E6"/>
<path d="M52.636 21.7861V27.9855C51.7684 27.8843 50.8882 27.8337 50.0002 27.8337C48.9165 27.8337 47.8455 27.9096 46.7949 28.0566V21.843C46.9747 21.8224 47.153 21.805 47.3328 21.7892C48.213 21.7086 49.1042 21.6675 50.0002 21.6675C50.6216 21.6675 51.2416 21.6865 51.8552 21.726C52.117 21.7418 52.3773 21.7623 52.636 21.7861Z" fill="#01D6E6"/>
<path d="M77.7635 48.4982C77.7635 48.8808 77.7556 49.2634 77.7383 49.6429C77.6405 51.9054 77.2524 54.119 76.5931 56.2439C75.3107 60.3721 72.9998 64.162 69.7883 67.3163C66.531 70.5164 62.597 72.8248 58.2939 74.1197C57.857 74.2509 57.4169 74.3727 56.9736 74.4833V68.072C60.1568 67.038 63.0623 65.2909 65.4836 62.9129C69.4349 59.0298 71.6117 53.9118 71.6117 48.4982C71.6117 43.0846 69.4349 37.9666 65.4836 34.085C63.0623 31.7071 60.1568 29.96 56.9736 28.9259V22.5146C57.4169 22.6253 57.857 22.7455 58.2939 22.8783C62.597 24.1732 66.531 26.4816 69.7883 29.6801C72.738 32.5767 74.9258 36.0092 76.2571 39.7453C76.9922 41.8102 77.4654 43.9668 77.661 46.1772C77.7288 46.9456 77.7635 47.7187 77.7635 48.4982Z" fill="#01D6E6"/>
<path d="M52.636 69.013V75.2125C52.3773 75.2362 52.117 75.2568 51.8552 75.2726C51.2416 75.3121 50.6216 75.3311 50.0002 75.3311C49.1042 75.3311 48.213 75.29 47.3328 75.2093C47.153 75.1935 46.9747 75.1761 46.7949 75.1556V68.9419C47.8455 69.0889 48.9165 69.1648 50.0002 69.1648C50.8882 69.1648 51.7684 69.1142 52.636 69.013Z" fill="#01D6E6"/>
<path d="M34.5178 34.0853C30.5649 37.9669 28.3881 43.0864 28.3881 48.4985C28.3881 53.9106 30.5649 59.0301 34.5178 62.9133C36.8239 65.1789 39.5702 66.8723 42.5767 67.9206V74.3666C42.2249 74.2733 41.8763 74.1737 41.5293 74.0678C37.294 72.7618 33.4247 70.4724 30.2116 67.3166C27 64.1623 24.6892 60.3724 23.4067 56.2442C22.7474 54.1193 22.3594 51.9057 22.2616 49.6432C22.2442 49.2637 22.2363 48.8811 22.2363 48.4985C22.2363 47.719 22.271 46.9459 22.3389 46.1775C22.5345 43.9671 23.0077 41.8105 23.7427 39.7456C25.074 36.0095 27.2619 32.577 30.2116 29.6804C33.4247 26.5262 37.294 24.2368 41.5293 22.9308C41.8763 22.8248 42.2249 22.7237 42.5767 22.6304V29.078C39.5702 30.1263 36.8239 31.8196 34.5178 34.0853Z" fill="#01D6E6"/>
<path d="M47.3325 75.2094V79.9701C45.356 79.8151 43.4158 79.4894 41.5293 78.9977V74.0679C41.8763 74.1738 42.2249 74.2734 42.5767 74.3667C43.9506 74.7335 45.3608 74.9975 46.7946 75.1557C46.9744 75.1762 47.1527 75.1936 47.3325 75.2094Z" fill="#01D6E6"/>
<path d="M52.636 69.013V75.2125C52.3773 75.2362 52.117 75.2568 51.8552 75.2726C51.2416 75.3121 50.6216 75.3311 50.0002 75.3311C49.1042 75.3311 48.213 75.29 47.3328 75.2093C47.153 75.1935 46.9747 75.1761 46.7949 75.1556V68.9419C47.8455 69.0889 48.9165 69.1648 50.0002 69.1648C50.8882 69.1648 51.7684 69.1142 52.636 69.013Z" fill="#01D6E6"/>
<path d="M58.2938 74.1201V79.0436C56.2054 79.5749 54.0507 79.9053 51.855 80.0239V75.2727C52.1168 75.2569 52.3771 75.2364 52.6358 75.2127C54.1106 75.0798 55.5602 74.8348 56.9736 74.4838C57.4168 74.3731 57.8569 74.2513 58.2938 74.1201Z" fill="#01D6E6"/>
<path d="M58.2938 17.9568V22.8803C57.8569 22.7475 57.4168 22.6274 56.9736 22.5167C55.5602 22.1657 54.1106 21.9206 52.6358 21.7878C52.3771 21.7641 52.1168 21.7435 51.855 21.7277V16.9766C54.0507 17.0951 56.2054 17.4256 58.2938 17.9568Z" fill="#01D6E6"/>
<path d="M47.3325 17.0303V21.7909C47.1527 21.8067 46.9744 21.8241 46.7946 21.8447C45.3608 22.0028 43.9506 22.2668 42.5767 22.6321C42.2249 22.7253 41.8763 22.8265 41.5293 22.9325V18.0026C43.4158 17.5109 45.356 17.1852 47.3325 17.0303Z" fill="#01D6E6"/>
<path d="M77.7635 48.4982C77.7635 48.8808 77.7556 49.2634 77.7383 49.6429C77.6405 51.9054 77.2524 54.119 76.5931 56.2439C75.3107 60.3721 72.9998 64.162 69.7883 67.3163C66.531 70.5164 62.597 72.8248 58.2939 74.1197C57.857 74.2509 57.4169 74.3727 56.9736 74.4833V68.072C60.1568 67.038 63.0623 65.2909 65.4836 62.9129C69.4349 59.0298 71.6117 53.9118 71.6117 48.4982C71.6117 43.0846 69.4349 37.9666 65.4836 34.085C63.0623 31.7071 60.1568 29.96 56.9736 28.9259V22.5146C57.4169 22.6253 57.857 22.7455 58.2939 22.8783C62.597 24.1732 66.531 26.4816 69.7883 29.6801C72.738 32.5767 74.9258 36.0092 76.2571 39.7453C76.9922 41.8102 77.4654 43.9668 77.661 46.1772C77.7288 46.9456 77.7635 47.7187 77.7635 48.4982Z" fill="#01D6E6"/>
<path d="M82.4753 49.6431C82.3933 51.893 82.0683 54.1033 81.5147 56.2441H76.5933C77.2526 54.1191 77.6406 51.9056 77.7384 49.6431H82.4753Z" fill="#01D6E6"/>
<path d="M34.5178 34.0853C30.5649 37.9669 28.3881 43.0864 28.3881 48.4985C28.3881 53.9106 30.5649 59.0301 34.5178 62.9133C36.8239 65.1789 39.5702 66.8723 42.5767 67.9206V74.3666C42.2249 74.2733 41.8763 74.1737 41.5293 74.0678C37.294 72.7618 33.4247 70.4724 30.2116 67.3166C27 64.1623 24.6892 60.3724 23.4067 56.2442C22.7474 54.1193 22.3594 51.9057 22.2616 49.6432C22.2442 49.2637 22.2363 48.8811 22.2363 48.4985C22.2363 47.719 22.271 46.9459 22.3389 46.1775C22.5345 43.9671 23.0077 41.8105 23.7427 39.7456C25.074 36.0095 27.2619 32.577 30.2116 29.6804C33.4247 26.5262 37.294 24.2368 41.5293 22.9308C41.8763 22.8248 42.2249 22.7237 42.5767 22.6304V29.078C39.5702 30.1263 36.8239 31.8196 34.5178 34.0853Z" fill="#01D6E6"/>
<path d="M23.7427 39.7471C23.0077 41.812 22.5344 43.9686 22.3388 46.1789H17.5894C17.7534 43.9828 18.1493 41.8294 18.7645 39.7471H23.7427Z" fill="#01D6E6"/>
<path d="M64.6698 38.3999V58.7026H60.6885C60.6885 58.7026 60.638 55.2796 59.9692 53.5088C59.3004 51.7379 58.6048 51.7506 55.5431 51.7648C52.4814 51.779 44.0881 51.7648 42.6275 51.7648C41.1668 51.7648 40.1226 52.0431 39.6762 54.108C39.2314 56.1729 39.1336 58.7026 39.1336 58.7026H35.1807V38.3999H39.1052C39.1052 38.3999 39.2298 41.6364 39.7598 43.2554C40.2898 44.8744 40.7472 45.3756 43.1701 45.3614C45.593 45.3472 56.8223 45.4468 57.9517 45.3614C59.2515 45.2634 60.1695 43.8214 60.3178 42.204C60.4929 40.2893 60.7816 38.3999 60.7816 38.3999H64.6698Z" fill="#01D6E6"/>
</svg>
